<svg width="33" height="32" viewBox="0 0 33 32" fill="none" xmlns="http://www.w3.org/2000/svg">
<g opacity="0.9">
<path d="M7.62354 5.92365C7.62354 3.57786 9.52775 1.67365 11.8735 1.67365V0.173645C8.69932 0.173645 6.12354 2.74943 6.12354 5.92365H7.62354ZM11.8735 1.67365H16.8735V0.173645H11.8735V1.67365ZM16.8735 10.1736H11.8735V11.6736H16.8735V10.1736ZM11.8735 10.1736C9.52775 10.1736 7.62354 8.26943 7.62354 5.92365H6.12354C6.12354 9.09786 8.69932 11.6736 11.8735 11.6736V10.1736Z" fill="#4628F1"/>
<path d="M16.9937 3.78046V16.2805" stroke="url(#paint0_linear_838_1450)" stroke-width="1.5" stroke-linecap="round" stroke-linejoin="round"/>
<path d="M26.123 5.92365C26.123 3.57786 24.2188 1.67365 21.873 1.67365V0.173645C25.0473 0.173645 27.623 2.74943 27.623 5.92365H26.123ZM21.873 1.67365H16.873V0.173645H21.873V1.67365ZM16.873 10.1736H21.873V11.6736H16.873V10.1736ZM21.873 10.1736C24.2188 10.1736 26.123 8.26943 26.123 5.92365H27.623C27.623 9.09786 25.0473 11.6736 21.873 11.6736V10.1736Z" fill="#4628F1"/>
<path d="M16.8735 10.9236H17.6235V10.1736H16.8735V10.9236ZM16.8735 20.9236V21.6736H17.6235V20.9236H16.8735ZM7.62354 15.9236C7.62354 13.5778 9.52775 11.6736 11.8735 11.6736V10.1736C8.69932 10.1736 6.12354 12.7494 6.12354 15.9236H7.62354ZM11.8735 11.6736H16.8735V10.1736H11.8735V11.6736ZM16.1235 10.9236V20.9236H17.6235V10.9236H16.1235ZM16.8735 20.1736H11.8735V21.6736H16.8735V20.1736ZM11.8735 20.1736C9.52775 20.1736 7.62354 18.2694 7.62354 15.9236H6.12354C6.12354 19.0978 8.69932 21.6736 11.8735 21.6736V20.1736Z" fill="#4628F1"/>
<path d="M16.8735 20.9237H17.6235V20.1737H16.8735V20.9237ZM7.62354 25.9237C7.62354 23.5779 9.52775 21.6737 11.8735 21.6737V20.1737C8.69932 20.1737 6.12354 22.7495 6.12354 25.9237H7.62354ZM11.8735 21.6737H16.8735V20.1737H11.8735V21.6737ZM16.1235 20.9237V25.9237H17.6235V20.9237H16.1235ZM11.8735 30.1737C9.52775 30.1737 7.62354 28.2695 7.62354 25.9237H6.12354C6.12354 29.0979 8.69932 31.6737 11.8735 31.6737V30.1737ZM16.1235 25.9237C16.1235 28.2709 14.2207 30.1737 11.8735 30.1737V31.6737C15.0492 31.6737 17.6235 29.0993 17.6235 25.9237H16.1235Z" fill="#4628F1"/>
<path d="M26.8691 15.9236C26.8691 18.6836 24.6291 20.9236 21.8691 20.9236C19.1091 20.9236 16.8691 18.6836 16.8691 15.9236C16.8691 13.1636 19.1091 10.9236 21.8691 10.9236C24.6291 10.9236 26.8691 13.1636 26.8691 15.9236Z" stroke="#4628F1" stroke-width="1.5"/>
</g>
<defs>
<linearGradient id="paint0_linear_838_1450" x1="16.9937" y1="0.655456" x2="16.9937" y2="19.4055" gradientUnits="userSpaceOnUse">
<stop offset="0.159722" stop-color="#4628F1"/>
<stop offset="1" stop-color="#4628F1" stop-opacity="0"/>
</linearGradient>
</defs>
</svg>
