<svg width="380" height="380" viewBox="0 0 380 380" fill="none" xmlns="http://www.w3.org/2000/svg">
<g clip-path="url(#clip0_831_1401)">
<path opacity="0.5" d="M94.7208 222.938C85.5561 207.11 93.497 187.73 112.458 179.649L323.729 89.6783C342.687 81.605 365.49 87.8925 374.664 103.722C383.829 119.55 375.888 138.93 356.927 147.011L145.656 236.982C126.689 245.053 103.886 238.765 94.7208 222.938Z" fill="url(#paint0_linear_831_1401)"/>
<path opacity="0.5" d="M5.21837 166.336C-3.94635 150.509 3.99459 131.129 22.9558 123.047L234.226 33.0768C253.184 25.0035 275.988 31.291 285.162 47.1209C294.327 62.9482 286.386 82.3284 267.424 90.4098L56.154 180.38C37.1867 188.451 14.3831 182.164 5.21837 166.336Z" fill="url(#paint1_linear_831_1401)"/>
<path opacity="0.5" d="M63.7208 334.5C54.5561 318.673 62.497 299.293 81.4582 291.211L292.729 201.241C311.687 193.168 334.49 199.455 343.664 215.285C352.829 231.112 344.888 250.493 325.927 258.574L114.656 348.544C95.6892 356.615 72.8855 350.328 63.7208 334.5Z" fill="url(#paint2_linear_831_1401)"/>
</g>
<defs>
<linearGradient id="paint0_linear_831_1401" x1="94.717" y1="222.934" x2="356.063" y2="71.6034" gradientUnits="userSpaceOnUse">
<stop stop-color="#4628F1" stop-opacity="0"/>
<stop offset="0.494792" stop-color="#4628F1" stop-opacity="0.1"/>
<stop offset="1" stop-color="#4628F1" stop-opacity="0.6"/>
</linearGradient>
<linearGradient id="paint1_linear_831_1401" x1="5.21457" y1="166.333" x2="266.561" y2="15.0018" gradientUnits="userSpaceOnUse">
<stop stop-color="#4628F1" stop-opacity="0"/>
<stop offset="0.505208" stop-color="#4628F1" stop-opacity="0.1"/>
<stop offset="1" stop-color="#4628F1" stop-opacity="0.6"/>
</linearGradient>
<linearGradient id="paint2_linear_831_1401" x1="63.717" y1="334.497" x2="325.063" y2="183.166" gradientUnits="userSpaceOnUse">
<stop stop-color="#4628F1" stop-opacity="0"/>
<stop offset="0.484375" stop-color="#4628F1" stop-opacity="0.1"/>
<stop offset="1" stop-color="#4628F1" stop-opacity="0.6"/>
</linearGradient>
<clipPath id="clip0_831_1401">
<rect width="380" height="380" fill="white"/>
</clipPath>
</defs>
</svg>
