<svg width="33" height="32" viewBox="0 0 33 32" fill="none" xmlns="http://www.w3.org/2000/svg">
<g clip-path="url(#clip0_838_1417)">
<path d="M32.6235 16.757C32.6235 16.3428 32.2877 16.007 31.8735 16.007C31.4593 16.007 31.1235 16.3428 31.1235 16.757H32.6235ZM6.24161 30.0517L6.5821 29.3834L6.24161 30.0517ZM2.74548 26.5556L2.07723 26.8961L2.74548 26.5556ZM26.0702 30.6161L26.2762 31.3373L26.0702 30.6161ZM31.566 25.1204L32.2872 25.3263L31.566 25.1204ZM31.0016 5.29172L30.3333 5.63221L31.0016 5.29172ZM6.24161 1.79559L5.90112 1.12734L6.24161 1.79559ZM2.74548 5.29172L2.07723 4.95123L2.74548 5.29172ZM14.6735 1.67365H19.0735V0.173645H14.6735V1.67365ZM21.0402 30.1736H14.6735V31.6736H21.0402V30.1736ZM2.62354 18.1236V13.7236H1.12354V18.1236H2.62354ZM31.1235 16.757V20.0903H32.6235V16.757H31.1235ZM31.1235 13.7236V20.0903H32.6235V13.7236H31.1235ZM14.6735 30.1736C12.4209 30.1736 10.7766 30.1731 9.48022 30.0671C8.19259 29.9619 7.3144 29.7566 6.5821 29.3834L5.90112 30.72C6.88012 31.2188 7.97768 31.4494 9.35808 31.5622C10.7297 31.6742 12.4457 31.6736 14.6735 31.6736V30.1736ZM1.12354 18.1236C1.12354 20.3515 1.12295 22.0675 1.23502 23.4391C1.3478 24.8195 1.5784 25.9171 2.07723 26.8961L3.41374 26.2151C3.04061 25.4828 2.83524 24.6046 2.73004 23.317C2.62412 22.0206 2.62354 20.3762 2.62354 18.1236H1.12354ZM6.5821 29.3834C5.21793 28.6884 4.10882 27.5793 3.41374 26.2151L2.07723 26.8961C2.91612 28.5425 4.2547 29.8811 5.90112 30.72L6.5821 29.3834ZM21.0402 31.6736C23.6243 31.6736 25.073 31.6809 26.2762 31.3373L25.8643 29.895C24.9139 30.1664 23.7271 30.1736 21.0402 30.1736V31.6736ZM31.1235 20.0903C31.1235 22.7772 31.1163 23.964 30.8449 24.9144L32.2872 25.3263C32.6308 24.1231 32.6235 22.6744 32.6235 20.0903H31.1235ZM26.2762 31.3373C29.1839 30.507 31.4568 28.2341 32.2872 25.3263L30.8449 24.9144C30.1568 27.3237 28.2736 29.207 25.8643 29.895L26.2762 31.3373ZM19.0735 1.67365C21.3261 1.67365 22.9705 1.67423 24.2668 1.78015C25.5545 1.88535 26.4327 2.09072 27.165 2.46385L27.846 1.12734C26.867 0.628514 25.7694 0.397912 24.389 0.285129C23.0174 0.173062 21.3014 0.173645 19.0735 0.173645V1.67365ZM32.6235 13.7236C32.6235 11.4958 32.6241 9.77983 32.5121 8.40819C32.3993 7.02779 32.1687 5.93023 31.6698 4.95123L30.3333 5.63221C30.7065 6.36451 30.9118 7.2427 31.017 8.53033C31.123 9.82673 31.1235 11.4711 31.1235 13.7236H32.6235ZM27.165 2.46385C28.5291 3.15893 29.6383 4.26804 30.3333 5.63221L31.6698 4.95123C30.8309 3.30481 29.4924 1.96623 27.846 1.12734L27.165 2.46385ZM14.6735 0.173645C12.4457 0.173645 10.7297 0.173062 9.35808 0.285129C7.97768 0.397912 6.88012 0.628514 5.90112 1.12734L6.5821 2.46385C7.3144 2.09072 8.19259 1.88535 9.48022 1.78015C10.7766 1.67423 12.4209 1.67365 14.6735 1.67365V0.173645ZM2.62354 13.7236C2.62354 11.4711 2.62412 9.82673 2.73004 8.53033C2.83524 7.2427 3.04061 6.36451 3.41374 5.63221L2.07723 4.95123C1.5784 5.93023 1.3478 7.02779 1.23502 8.40819C1.12295 9.77983 1.12354 11.4958 1.12354 13.7236H2.62354ZM5.90112 1.12734C4.2547 1.96623 2.91612 3.30481 2.07723 4.95123L3.41374 5.63221C4.10882 4.26804 5.21793 3.15893 6.5821 2.46385L5.90112 1.12734Z" fill="#4628F1"/>
<path d="M19.0868 21.7126L18.4547 21.3089L19.0868 21.7126ZM18.497 22.3092L18.086 21.6818L18.497 22.3092ZM25.3094 6.50159L24.8936 7.12578L25.3094 6.50159ZM24.8871 6.22028L24.4713 6.84446L24.8871 6.22028ZM13.3625 18.8106L12.6304 18.6479L13.3625 18.8106ZM13.6293 18.1681L14.2614 18.5717L13.6293 18.1681ZM12.1115 24.4399L11.3793 24.2772L12.1115 24.4399ZM12.8436 24.6026L14.0947 18.9733L12.6304 18.6479L11.3793 24.2772L12.8436 24.6026ZM14.2614 18.5717L21.3275 7.50607L20.0633 6.69878L12.9971 17.7644L14.2614 18.5717ZM24.4713 6.84446L24.8936 7.12578L25.7252 5.87741L25.3029 5.59609L24.4713 6.84446ZM25.5425 10.2093L18.4547 21.3089L19.7189 22.1162L26.8068 11.0166L25.5425 10.2093ZM18.086 21.6818L13.2246 24.8659L14.0465 26.1208L18.9079 22.9366L18.086 21.6818ZM18.4547 21.3089C18.3595 21.4579 18.2339 21.585 18.086 21.6818L18.9079 22.9366C19.2332 22.7236 19.5096 22.4439 19.7189 22.1162L18.4547 21.3089ZM24.8936 7.12578C25.9137 7.80529 26.2022 9.17625 25.5425 10.2093L26.8068 11.0166C27.9062 9.29487 27.4253 7.00994 25.7252 5.87741L24.8936 7.12578ZM21.3275 7.50607C22.0055 6.44439 23.4229 6.14609 24.4713 6.84446L25.3029 5.59609C23.5556 4.43213 21.1932 4.92931 20.0633 6.69878L21.3275 7.50607ZM14.0947 18.9733C14.1263 18.8307 14.1828 18.6948 14.2614 18.5717L12.9971 17.7644C12.8242 18.0352 12.7001 18.3342 12.6304 18.6479L14.0947 18.9733ZM11.3793 24.2772C11.0387 25.81 12.7329 26.9811 14.0465 26.1208L13.2246 24.8659C13.037 24.9889 12.7949 24.8215 12.8436 24.6026L11.3793 24.2772Z" fill="#4628F1"/>
<path d="M20.6562 7.63239L25.555 10.9598" stroke="#4628F1" stroke-width="1.5" stroke-linecap="round" stroke-linejoin="round"/>
<path d="M19.7905 20.9236H26.8739" stroke="url(#paint0_linear_838_1417)" stroke-width="1.5" stroke-linecap="round" stroke-linejoin="round"/>
<path d="M6.87354 20.9236H10.6235" stroke="url(#paint1_linear_838_1417)" stroke-width="1.5" stroke-linecap="round" stroke-linejoin="round"/>
<path d="M6.87354 15.9236H13.5402" stroke="url(#paint2_linear_838_1417)" stroke-width="1.5" stroke-linecap="round" stroke-linejoin="round"/>
<path d="M26.8735 15.9236H23.5402" stroke="url(#paint3_linear_838_1417)" stroke-width="1.5" stroke-linecap="round" stroke-linejoin="round"/>
<path d="M6.87354 10.9236H19.3735" stroke="url(#paint4_linear_838_1417)" stroke-width="1.5" stroke-linecap="round" stroke-linejoin="round"/>
</g>
<defs>
<linearGradient id="paint0_linear_838_1417" x1="18.0977" y1="20.9236" x2="28.6421" y2="20.9236" gradientUnits="userSpaceOnUse">
<stop stop-color="#4628F1" stop-opacity="0"/>
<stop offset="1" stop-color="#4628F1"/>
</linearGradient>
<linearGradient id="paint1_linear_838_1417" x1="7.0333" y1="20.9236" x2="11.3469" y2="20.9236" gradientUnits="userSpaceOnUse">
<stop stop-color="#4628F1"/>
<stop offset="0.868527" stop-color="#4628F1" stop-opacity="0"/>
</linearGradient>
<linearGradient id="paint2_linear_838_1417" x1="7.15756" y1="15.9236" x2="14.8262" y2="15.9236" gradientUnits="userSpaceOnUse">
<stop stop-color="#4628F1"/>
<stop offset="0.868527" stop-color="#4628F1" stop-opacity="0"/>
</linearGradient>
<linearGradient id="paint3_linear_838_1417" x1="26.5895" y1="15.9236" x2="18.9209" y2="15.9236" gradientUnits="userSpaceOnUse">
<stop stop-color="#4628F1"/>
<stop offset="0.390842" stop-color="#4628F1" stop-opacity="0"/>
</linearGradient>
<linearGradient id="paint4_linear_838_1417" x1="7.40608" y1="10.9236" x2="21.7848" y2="10.9236" gradientUnits="userSpaceOnUse">
<stop stop-color="#4628F1"/>
<stop offset="0.868527" stop-color="#4628F1" stop-opacity="0"/>
</linearGradient>
<clipPath id="clip0_838_1417">
<rect width="32" height="32" fill="white" transform="translate(0.873535)"/>
</clipPath>
</defs>
</svg>
