<svg width="61" height="60" viewBox="0 0 61 60" fill="none" xmlns="http://www.w3.org/2000/svg">
<rect x="0.5" width="60" height="60" rx="30" fill="black"/>
<path d="M36.658 29.3748V29.3836L36.6492 29.3787L36.658 29.3748Z" stroke="#FFF200" stroke-width="0.0348692" stroke-miterlimit="10"/>
<path d="M48.0011 31.1073V38.3689C48.001 38.5521 47.9527 38.7321 47.8611 38.8908C47.7694 39.0495 47.6377 39.1813 47.479 39.2729C47.3203 39.3646 47.1403 39.4128 46.957 39.4129C46.7738 39.413 46.5937 39.3648 46.435 39.2733L40.1395 35.639L32.5901 31.2844C32.4311 31.1928 32.2991 31.0609 32.2073 30.9021C32.1155 30.7432 32.0671 30.563 32.0671 30.3795C32.0671 30.1961 32.1155 30.0158 32.2073 29.857C32.2991 29.6981 32.4311 29.5662 32.5901 29.4746L38.3561 26.1468C38.5151 26.0554 38.6954 26.0073 38.8788 26.0073C39.0622 26.0073 39.2424 26.0554 39.4014 26.1468L47.9952 31.1082L48.0011 31.1073Z" fill="#4628F1"/>
<path d="M48.001 31.1073V38.5666C48.001 38.7299 47.9581 38.8904 47.8764 39.0319C47.7948 39.1734 47.6773 39.2909 47.5359 39.3727C47.3945 39.4544 47.234 39.4975 47.0706 39.4975C46.9073 39.4976 46.7468 39.4547 46.6053 39.3731L40.1384 35.639L32.4178 31.1866C32.2766 31.1046 32.1593 30.9871 32.0779 30.8456C31.9964 30.7042 31.9535 30.5438 31.9535 30.3805C31.9535 30.2173 31.9964 30.0569 32.0779 29.9154C32.1593 29.774 32.2766 29.6564 32.4178 29.5745L38.4167 26.1086C38.5582 26.0273 38.7185 25.9845 38.8817 25.9845C39.0448 25.9845 39.2051 26.0273 39.3466 26.1086L47.9981 31.1004L48.001 31.1073Z" fill="url(#paint0_linear_7_4204)"/>
<path d="M48.001 31.1405V38.9708C48.0012 39.3516 47.9011 39.7257 47.7107 40.0554C47.5203 40.3851 47.2464 40.6589 46.9165 40.8491L38.7926 45.5473L32.1105 49.3919C31.7764 49.5848 31.3975 49.6863 31.0118 49.6863C30.6261 49.6863 30.2471 49.5848 29.9131 49.3919L23.1389 45.4768L30.9144 40.9881L40.1375 35.6625L47.9932 31.1278L48.001 31.1405Z" fill="#4628F1"/>
<path d="M36.658 29.3748L36.6492 29.3787" stroke="#FFF200" stroke-width="0.0348692" stroke-miterlimit="10"/>
<path d="M48.001 31.1405V38.9532C48.001 39.3388 47.8996 39.7177 47.7068 40.0517C47.514 40.3857 47.2367 40.663 46.9028 40.856L38.7877 45.5414L32.1105 49.3919C31.7764 49.5848 31.3975 49.6863 31.0118 49.6863C30.6261 49.6863 30.2471 49.5848 29.9131 49.3919L23.1389 45.4768L30.9144 40.9881L40.1375 35.6625L47.9932 31.1278L48.001 31.1405Z" fill="url(#paint1_linear_7_4204)"/>
<path d="M38.7642 45.5414L32.087 49.392C31.7531 49.5853 31.3741 49.6871 30.9883 49.6871C30.6025 49.6871 30.2235 49.5853 29.8896 49.392L23.1164 45.4768L14 40.2227L21.7774 35.733L30.8928 40.996L38.7642 45.5414Z" fill="#4628F1"/>
<path d="M36.658 29.3748V29.3836L36.6492 29.3787L36.658 29.3748Z" stroke="#FFF200" stroke-width="0.0348692" stroke-miterlimit="10"/>
<path d="M48.0011 31.1073V38.781C48.001 38.9226 47.9636 39.0617 47.8927 39.1843C47.8218 39.307 47.7199 39.4088 47.5973 39.4796C47.4746 39.5504 47.3355 39.5877 47.1938 39.5877C47.0522 39.5878 46.913 39.5506 46.7903 39.4798L40.1346 35.6391L31.0182 30.3761L38.8749 25.8405L47.9913 31.1034L48.0011 31.1073Z" fill="#4628F1"/>
<path d="M48.0011 31.1073V38.8211C48.0011 38.9585 47.9649 39.0936 47.8962 39.2126C47.8275 39.3317 47.7287 39.4306 47.6096 39.4993C47.4906 39.5681 47.3555 39.6043 47.2181 39.6043C47.0806 39.6043 46.9456 39.5681 46.8265 39.4994L40.1385 35.6381L32.1976 31.0534C32.0785 30.9847 31.9796 30.8859 31.9108 30.7668C31.842 30.6477 31.8058 30.5126 31.8058 30.3751C31.8058 30.2376 31.842 30.1025 31.9108 29.9835C31.9796 29.8644 32.0785 29.7655 32.1976 29.6968L38.4873 26.0655C38.6063 25.9968 38.7413 25.9606 38.8788 25.9606C39.0162 25.9606 39.1513 25.9968 39.2703 26.0655L47.9952 31.1024L48.0011 31.1073Z" fill="url(#paint2_linear_7_4204)"/>
<path d="M48.001 31.1405V38.9532C48.001 39.3388 47.8996 39.7177 47.7068 40.0517C47.514 40.3857 47.2367 40.663 46.9028 40.856L38.7877 45.5414L32.1105 49.3919C31.7764 49.5848 31.3975 49.6863 31.0118 49.6863C30.6261 49.6863 30.2471 49.5848 29.9131 49.3919L23.1389 45.4768L30.9144 40.9881L40.1375 35.6625L47.9932 31.1278L48.001 31.1405Z" fill="#4628F1"/>
<path d="M36.658 29.3748L36.6492 29.3787" stroke="#FFF200" stroke-width="0.0348692" stroke-miterlimit="10"/>
<path d="M48.001 31.1405V38.9532C48.001 39.3388 47.8996 39.7177 47.7068 40.0517C47.514 40.3857 47.2367 40.663 46.9028 40.856L38.7877 45.5414L32.1105 49.3919C31.7764 49.5848 31.3975 49.6863 31.0118 49.6863C30.6261 49.6863 30.2471 49.5848 29.9131 49.3919L23.1389 45.4768L30.9144 40.9881L40.1375 35.6625L47.9932 31.1278L48.001 31.1405Z" fill="url(#paint3_linear_7_4204)"/>
<path d="M38.7642 45.5414L32.087 49.392C31.7531 49.5853 31.3741 49.6871 30.9883 49.6871C30.6025 49.6871 30.2235 49.5853 29.8896 49.392L23.1164 45.4768L14 40.2227L21.7774 35.733L30.8928 40.996L38.7642 45.5414Z" fill="#4628F1"/>
<path d="M25.3431 30.3164V30.3076L25.3519 30.3115L25.3431 30.3164Z" stroke="#FFF200" stroke-width="0.0348692" stroke-miterlimit="10"/>
<path d="M14 28.584V21.3224C14.0002 21.1392 14.0485 20.9592 14.1402 20.8006C14.2318 20.6419 14.3635 20.5101 14.5221 20.4184C14.6808 20.3267 14.8607 20.2783 15.0439 20.2781C15.2271 20.2778 15.4072 20.3257 15.5661 20.417L21.8606 24.0522L29.4119 28.4098C29.5709 28.5014 29.703 28.6332 29.7948 28.7921C29.8866 28.9509 29.9349 29.1312 29.9349 29.3146C29.9349 29.4981 29.8866 29.6784 29.7948 29.8372C29.703 29.9961 29.5709 30.1279 29.4119 30.2195L23.6459 33.5474C23.487 33.6392 23.3068 33.6876 23.1233 33.6876C22.9397 33.6876 22.7595 33.6392 22.6006 33.5474L14.0069 28.5869L14 28.584Z" fill="#4628F1"/>
<path d="M14 28.584V21.1237C14.0005 20.9606 14.0439 20.8006 14.1259 20.6596C14.2078 20.5186 14.3253 20.4016 14.4667 20.3204C14.6081 20.2392 14.7684 20.1966 14.9315 20.1969C15.0945 20.1972 15.2546 20.2403 15.3957 20.322L21.8626 24.0561L29.5832 28.5125C29.7247 28.5941 29.8422 28.7115 29.9239 28.8529C30.0056 28.9943 30.0486 29.1547 30.0486 29.3181C30.0486 29.4814 30.0056 29.6418 29.9239 29.7832C29.8422 29.9246 29.7247 30.042 29.5832 30.1236L23.5872 33.5816C23.4459 33.6633 23.2855 33.7064 23.1223 33.7064C22.959 33.7064 22.7987 33.6633 22.6574 33.5816L14.0069 28.5898L14 28.584Z" fill="url(#paint4_linear_7_4204)"/>
<path d="M14 28.5507V20.7204C14.0002 20.3399 14.1005 19.9661 14.2909 19.6365C14.4812 19.307 14.7549 19.0334 15.0845 18.8431L23.2133 14.1498L29.8906 10.2944C30.2246 10.1015 30.6035 10 30.9893 10C31.375 10 31.7539 10.1015 32.0879 10.2944L38.8621 14.2095L31.0876 18.6953L21.8636 24.0199L14.0078 28.5556L14 28.5507Z" fill="#4628F1"/>
<path d="M25.3431 30.3164L25.3519 30.3115" stroke="#FFF200" stroke-width="0.0348692" stroke-miterlimit="10"/>
<path d="M14 28.5507V20.738C14 20.3524 14.1015 19.9735 14.2942 19.6396C14.487 19.3056 14.7643 19.0282 15.0982 18.8353L23.2133 14.1498L29.8906 10.2944C30.2246 10.1015 30.6035 10 30.9893 10C31.375 10 31.7539 10.1015 32.0879 10.2944L38.8621 14.2095L31.0876 18.6953L21.8636 24.0199L14.0078 28.5556L14 28.5507Z" fill="url(#paint5_linear_7_4204)"/>
<path d="M23.2368 14.1498L29.9141 10.2944C30.2481 10.1015 30.6271 10 31.0128 10C31.3985 10 31.7774 10.1015 32.1115 10.2944L38.8856 14.2095L48.0011 19.4725L40.2256 23.9621L31.1092 18.6953L23.2368 14.1498Z" fill="#4628F1"/>
<path d="M25.3431 30.3164V30.3076L25.3519 30.3115L25.3431 30.3164Z" stroke="#FFF200" stroke-width="0.0348692" stroke-miterlimit="10"/>
<path d="M14 28.5839V20.9093C13.9998 20.7675 14.037 20.6282 14.1078 20.5054C14.1786 20.3826 14.2806 20.2807 14.4033 20.2098C14.5261 20.139 14.6654 20.1017 14.8071 20.1018C14.9489 20.1019 15.0881 20.1394 15.2108 20.2104L21.8665 24.0512L30.978 29.3141L23.1223 33.8508L14.0069 28.5869L14 28.5839Z" fill="#4628F1"/>
<path d="M14 28.584V20.8692C14 20.7317 14.0361 20.5967 14.1048 20.4776C14.1736 20.3586 14.2724 20.2597 14.3914 20.1909C14.5105 20.1222 14.6455 20.086 14.783 20.086C14.9204 20.086 15.0555 20.1222 15.1745 20.1909L21.8626 24.0522L29.8035 28.6359C29.9226 28.7046 30.0215 28.8034 30.0903 28.9225C30.1591 29.0416 30.1953 29.1766 30.1953 29.3142C30.1953 29.4517 30.1591 29.5868 30.0903 29.7058C30.0215 29.8249 29.9226 29.9238 29.8035 29.9925L23.5138 33.6247C23.3948 33.6935 23.2597 33.7296 23.1223 33.7296C22.9848 33.7296 22.8498 33.6935 22.7308 33.6247L14.0069 28.5869L14 28.584Z" fill="url(#paint6_linear_7_4204)"/>
<path d="M14 28.5507V20.738C14 20.3524 14.1015 19.9735 14.2942 19.6396C14.487 19.3056 14.7643 19.0282 15.0982 18.8353L23.2133 14.1498L29.8906 10.2944C30.2246 10.1015 30.6035 10 30.9893 10C31.375 10 31.7539 10.1015 32.0879 10.2944L38.8621 14.2095L31.0876 18.6953L21.8636 24.0199L14.0078 28.5556L14 28.5507Z" fill="#4628F1"/>
<path d="M25.3431 30.3164L25.3519 30.3115" stroke="#FFF200" stroke-width="0.0348692" stroke-miterlimit="10"/>
<path d="M14 28.5507V20.738C14 20.3524 14.1015 19.9735 14.2942 19.6396C14.487 19.3056 14.7643 19.0282 15.0982 18.8353L23.2133 14.1498L29.8906 10.2944C30.2246 10.1015 30.6035 10 30.9893 10C31.375 10 31.7539 10.1015 32.0879 10.2944L38.8621 14.2095L31.0876 18.6953L21.8636 24.0199L14.0078 28.5556L14 28.5507Z" fill="url(#paint7_linear_7_4204)"/>
<path d="M23.2368 14.1498L29.9141 10.2944C30.2481 10.1015 30.6271 10 31.0128 10C31.3985 10 31.7774 10.1015 32.1115 10.2944L38.8856 14.2095L48.0011 19.4725L40.2256 23.9621L31.1092 18.6953L23.2368 14.1498Z" fill="#4628F1"/>
<defs>
<linearGradient id="paint0_linear_7_4204" x1="35.2807" y1="24.3184" x2="45.0823" y2="38.039" gradientUnits="userSpaceOnUse">
<stop offset="0.35" stop-color="#231F20" stop-opacity="0"/>
<stop offset="0.94"/>
</linearGradient>
<linearGradient id="paint1_linear_7_4204" x1="59.0672" y1="29.8211" x2="23.1203" y2="49.5662" gradientUnits="userSpaceOnUse">
<stop offset="0.44" stop-color="#231F20" stop-opacity="0"/>
<stop offset="1"/>
</linearGradient>
<linearGradient id="paint2_linear_7_4204" x1="35.2142" y1="24.3037" x2="45.1146" y2="38.1633" gradientUnits="userSpaceOnUse">
<stop offset="0.51" stop-color="#231F20" stop-opacity="0"/>
<stop offset="0.94"/>
</linearGradient>
<linearGradient id="paint3_linear_7_4204" x1="59.0672" y1="29.8211" x2="23.1203" y2="49.5662" gradientUnits="userSpaceOnUse">
<stop offset="0.51" stop-color="#231F20" stop-opacity="0"/>
<stop offset="1"/>
</linearGradient>
<linearGradient id="paint4_linear_7_4204" x1="26.7203" y1="35.3728" x2="16.9187" y2="21.6522" gradientUnits="userSpaceOnUse">
<stop offset="0.35" stop-color="#231F20" stop-opacity="0"/>
<stop offset="0.94"/>
</linearGradient>
<linearGradient id="paint5_linear_7_4204" x1="2.93386" y1="29.8701" x2="38.8807" y2="10.1251" gradientUnits="userSpaceOnUse">
<stop offset="0.44" stop-color="#231F20" stop-opacity="0"/>
<stop offset="1"/>
</linearGradient>
<linearGradient id="paint6_linear_7_4204" x1="26.7868" y1="35.3875" x2="16.8864" y2="21.5279" gradientUnits="userSpaceOnUse">
<stop offset="0.51" stop-color="#231F20" stop-opacity="0"/>
<stop offset="0.94"/>
</linearGradient>
<linearGradient id="paint7_linear_7_4204" x1="2.93386" y1="29.8701" x2="38.8807" y2="10.1251" gradientUnits="userSpaceOnUse">
<stop offset="0.51" stop-color="#231F20" stop-opacity="0"/>
<stop offset="1"/>
</linearGradient>
</defs>
</svg>
