<svg id="Layer_1" data-name="Layer 1" xmlns="http://www.w3.org/2000/svg" xmlns:xlink="http://www.w3.org/1999/xlink" viewBox="0 0 1284.86 408.67"><defs><style>.cls-1{fill:none;stroke:#fff200;stroke-miterlimit:10;stroke-width:0.25px;}.cls-2{fill:#634af0;}.cls-3{fill:url(#linear-gradient);}.cls-4{fill:url(#linear-gradient-2);}.cls-5{fill:#fff;}.cls-6{fill:url(#linear-gradient-3);}.cls-7{fill:url(#linear-gradient-4);}.cls-8{fill:url(#linear-gradient-5);}.cls-9{fill:url(#linear-gradient-6);}.cls-10{fill:url(#linear-gradient-7);}.cls-11{fill:url(#linear-gradient-8);}</style><linearGradient id="linear-gradient" x1="228.29" y1="150.15" x2="324.76" y2="285.19" gradientUnits="userSpaceOnUse"><stop offset="0.35" stop-color="#231f20" stop-opacity="0"/><stop offset="0.94"/></linearGradient><linearGradient id="linear-gradient-2" x1="462.41" y1="204.31" x2="108.6" y2="398.66" gradientUnits="userSpaceOnUse"><stop offset="0.44" stop-color="#231f20" stop-opacity="0"/><stop offset="1"/></linearGradient><linearGradient id="linear-gradient-3" x1="227.63" y1="150.15" x2="325.08" y2="286.56" gradientUnits="userSpaceOnUse"><stop offset="0.51" stop-color="#634af0" stop-opacity="0"/><stop offset="0.94" stop-color="#634af0"/></linearGradient><linearGradient id="linear-gradient-4" x1="462.41" y1="204.31" x2="108.6" y2="398.66" gradientUnits="userSpaceOnUse"><stop offset="0.51" stop-color="#634af0" stop-opacity="0"/><stop offset="0.64" stop-color="#634af0" stop-opacity="0.29"/><stop offset="0.82" stop-color="#634af0" stop-opacity="0.67"/><stop offset="0.94" stop-color="#634af0" stop-opacity="0.91"/><stop offset="1" stop-color="#634af0"/></linearGradient><linearGradient id="linear-gradient-5" x1="-9099.31" y1="-4262.42" x2="-9002.84" y2="-4127.37" gradientTransform="translate(-8955.28 -4003.47) rotate(180)" xlink:href="#linear-gradient"/><linearGradient id="linear-gradient-6" x1="-8865.19" y1="-4208.26" x2="-9219" y2="-4013.91" gradientTransform="translate(-8955.28 -4003.47) rotate(180)" xlink:href="#linear-gradient-2"/><linearGradient id="linear-gradient-7" x1="-9099.97" y1="-4262.59" x2="-9002.52" y2="-4126.18" gradientTransform="translate(-8955.28 -4003.47) rotate(180)" xlink:href="#linear-gradient-3"/><linearGradient id="linear-gradient-8" x1="-8865.19" y1="-4208.26" x2="-9219" y2="-4013.91" gradientTransform="translate(-8955.28 -4003.47) rotate(180)" xlink:href="#linear-gradient-4"/></defs><polygon class="cls-1" points="241.84 199.91 241.84 200 241.76 199.96 241.84 199.91"/><path class="cls-2" d="M353.49,217v71.47a10.29,10.29,0,0,1-15.43,8.91l-62-35.78-74.29-42.88a10.29,10.29,0,0,1,0-17.82l56.76-32.77a10.28,10.28,0,0,1,10.29,0l84.58,48.83Z"/><path class="cls-3" d="M353.49,217v73.42a9.16,9.16,0,0,1-13.74,7.93L276.1,261.57l-76-43.86a9.16,9.16,0,0,1,0-15.86l59-34.08a9.19,9.19,0,0,1,9.16,0l85.15,49.16Z"/><path class="cls-2" d="M353.49,217.29v77.06a21.35,21.35,0,0,1-10.67,18.49l-80,46.2L197.08,397a21.6,21.6,0,0,1-21.63,0l-66.67-38.5,76.53-44.18,90.78-52.41,77.32-44.64Z"/><line class="cls-1" x1="241.84" y1="199.91" x2="241.76" y2="199.96"/><path class="cls-4" d="M353.49,217.29v76.9a21.62,21.62,0,0,1-10.81,18.73L262.8,359,197.08,397a21.6,21.6,0,0,1-21.63,0l-66.67-38.5,76.53-44.18,90.78-52.41,77.32-44.64Z"/><path class="cls-2" d="M262.58,359,196.86,397a21.6,21.6,0,0,1-21.63,0l-66.68-38.49-89.72-51.8L95.37,262.5l89.72,51.8Z"/><polygon class="cls-1" points="241.84 199.91 241.84 200 241.76 199.96 241.84 199.91"/><path class="cls-5" d="M353.49,217V292.5a7.94,7.94,0,0,1-11.91,6.88L276.1,261.57l-89.73-51.79,77.33-44.65,89.73,51.8Z"/><path class="cls-6" d="M353.49,217.11V293a7.71,7.71,0,0,1-11.56,6.68l-65.83-38-78.16-45.12a7.71,7.71,0,0,1,0-13.35l61.91-35.74a7.7,7.7,0,0,1,7.71,0l85.87,49.57Z"/><path class="cls-5" d="M353.49,217.29v76.9a21.62,21.62,0,0,1-10.81,18.73L262.8,359,197.08,397a21.6,21.6,0,0,1-21.63,0l-66.67-38.5,76.53-44.18,90.78-52.41,77.32-44.64Z"/><line class="cls-1" x1="241.84" y1="199.91" x2="241.76" y2="199.96"/><path class="cls-7" d="M353.49,217.29v76.9a21.62,21.62,0,0,1-10.81,18.73L262.8,359,197.08,397a21.6,21.6,0,0,1-21.63,0l-66.67-38.5,76.53-44.18,90.78-52.41,77.32-44.64Z"/><path class="cls-5" d="M262.58,359,196.86,397a21.6,21.6,0,0,1-21.63,0l-66.68-38.49-89.72-51.8L95.37,262.5l89.72,51.8Z"/><polygon class="cls-1" points="130.48 209.19 130.48 209.1 130.56 209.14 130.48 209.19"/><path class="cls-2" d="M18.83,192.13V120.66a10.29,10.29,0,0,1,15.43-8.91l62,35.78,74.29,42.89a10.28,10.28,0,0,1,0,17.81L113.76,241a10.28,10.28,0,0,1-10.29,0L18.89,192.17Z"/><path class="cls-8" d="M18.83,192.13V118.71a9.15,9.15,0,0,1,13.73-7.93l63.66,36.75,76,43.86a9.16,9.16,0,0,1,0,15.86l-59,34.08a9.19,9.19,0,0,1-9.16,0L18.89,192.17Z"/><path class="cls-2" d="M18.83,191.81V114.75A21.35,21.35,0,0,1,29.5,96.26l80-46.2,65.73-37.94a21.6,21.6,0,0,1,21.63,0l66.67,38.5L187,94.8,96.23,147.21,18.91,191.85Z"/><line class="cls-1" x1="130.48" y1="209.19" x2="130.56" y2="209.14"/><path class="cls-9" d="M18.83,191.81v-76.9A21.62,21.62,0,0,1,29.64,96.18l79.87-46.12,65.73-37.94a21.6,21.6,0,0,1,21.63,0l66.67,38.5L187,94.8,96.23,147.21,18.91,191.85Z"/><path class="cls-2" d="M109.74,50.06l65.72-37.94a21.6,21.6,0,0,1,21.63,0l66.67,38.49,89.73,51.8L277,146.6,187.23,94.8Z"/><polygon class="cls-1" points="130.48 209.19 130.48 209.1 130.56 209.14 130.48 209.19"/><path class="cls-5" d="M18.83,192.13V116.6a7.94,7.94,0,0,1,11.91-6.88l65.48,37.81,89.72,51.79L108.62,244l-89.73-51.8Z"/><path class="cls-10" d="M18.83,192.17V116.23a7.7,7.7,0,0,1,11.56-6.67l65.83,38,78.16,45.12a7.71,7.71,0,0,1,0,13.35l-61.91,35.75a7.7,7.7,0,0,1-7.71,0L18.89,192.2Z"/><path class="cls-5" d="M18.83,191.81v-76.9A21.62,21.62,0,0,1,29.64,96.18l79.87-46.12,65.73-37.94a21.6,21.6,0,0,1,21.63,0l66.67,38.5L187,94.8,96.23,147.21,18.91,191.85Z"/><line class="cls-1" x1="130.48" y1="209.19" x2="130.56" y2="209.14"/><path class="cls-11" d="M18.83,191.81v-76.9A21.62,21.62,0,0,1,29.64,96.18l79.87-46.12,65.73-37.94a21.6,21.6,0,0,1,21.63,0l66.67,38.5L187,94.8,96.23,147.21,18.91,191.85Z"/><path class="cls-5" d="M109.74,50.06l65.72-37.94a21.6,21.6,0,0,1,21.63,0l66.67,38.49,89.73,51.8L277,146.6,187.23,94.8Z"/><path class="cls-5" d="M448.34,264.37V236.2h99.14q7.59,0,11.74-3.61t4.16-9.94q0-6.68-4.16-10.29t-11.74-3.61H488.07a50.49,50.49,0,0,1-17.42-2.8,38.78,38.78,0,0,1-13.1-7.77,33.21,33.21,0,0,1-8.3-11.91A39.32,39.32,0,0,1,446.36,171a41.07,41.07,0,0,1,2.71-15.08,32.69,32.69,0,0,1,8-12A37.9,37.9,0,0,1,470.29,136a52.51,52.51,0,0,1,18.14-2.88h95v28.17h-95q-6,0-9.39,3.25c-2.28,2.16-3.43,5.3-3.43,9.39s1.18,7.22,3.52,9.39a13.21,13.21,0,0,0,9.3,3.25h59.05q20.78,0,31.61,9.39T589.92,225a45.63,45.63,0,0,1-2.62,15.71,32.89,32.89,0,0,1-7.94,12.46,37.34,37.34,0,0,1-13.28,8.22,53,53,0,0,1-18.6,3Z"/><path class="cls-5" d="M609.06,264.37V133.09h28.17V264.37Z"/><path class="cls-5" d="M685.63,177v87.4H658.9V148.07q0-7.75,3.79-12.19a12.89,12.89,0,0,1,10.3-4.42,13.75,13.75,0,0,1,5.68,1.17,21.61,21.61,0,0,1,5.69,4.07l86,82.52v-87.4h26.91V249.38q0,8.13-3.89,12.46a13,13,0,0,1-10.2,4.33q-6.14,0-11.56-5.41Z"/><path class="cls-5" d="M817.63,264.37V133.09h77.29a70.29,70.29,0,0,1,26,4.69A61.12,61.12,0,0,1,941.51,151a60.08,60.08,0,0,1,13.54,20.32,67.81,67.81,0,0,1,4.88,26.09,71.33,71.33,0,0,1-4.88,26.55,62.59,62.59,0,0,1-34.13,35.3,64.88,64.88,0,0,1-26,5.15ZM895,236.2a37.9,37.9,0,0,0,14.68-2.8,34.43,34.43,0,0,0,11.62-7.77A36,36,0,0,0,929,213.8a39.2,39.2,0,0,0,2.8-15,39.9,39.9,0,0,0-2.8-15.08,35.88,35.88,0,0,0-7.66-11.92,34.58,34.58,0,0,0-11.62-7.77A38.08,38.08,0,0,0,895,161.26H845.8V236.2Z"/><path class="cls-5" d="M976.9,264.37V133.09h119.36v28.17h-91.19V236.2h91.38v28.17Zm44.42-55.62V186.54H1091v22.21Z"/><path class="cls-5" d="M1105.29,133.09h34.31l54.9,93.72,54.72-93.72h32.32l-74.58,124a23.09,23.09,0,0,1-5.78,6.6,13.77,13.77,0,0,1-15.62,0,23.82,23.82,0,0,1-5.69-6.6Z"/></svg>