<svg id="Layer_1" data-name="Layer 1" xmlns="http://www.w3.org/2000/svg" xmlns:xlink="http://www.w3.org/1999/xlink" viewBox="0 0 1284.86 408.67"><defs><style>.cls-1{fill:none;stroke:#fff200;stroke-miterlimit:10;stroke-width:0.25px;}.cls-2{fill:#634af0;}.cls-3{fill:url(#linear-gradient);}.cls-4{fill:url(#linear-gradient-2);}.cls-5{fill:#231f20;}.cls-6{fill:url(#linear-gradient-3);}.cls-7{fill:url(#linear-gradient-4);}.cls-8{fill:url(#linear-gradient-5);}.cls-9{fill:url(#linear-gradient-6);}.cls-10{fill:url(#linear-gradient-7);}.cls-11{fill:url(#linear-gradient-8);}</style><linearGradient id="linear-gradient" x1="219.22" y1="148.04" x2="315.69" y2="283.09" gradientUnits="userSpaceOnUse"><stop offset="0.35" stop-color="#231f20" stop-opacity="0"/><stop offset="0.94"/></linearGradient><linearGradient id="linear-gradient-2" x1="453.34" y1="202.21" x2="99.53" y2="396.55" gradientUnits="userSpaceOnUse"><stop offset="0.44" stop-color="#231f20" stop-opacity="0"/><stop offset="1"/></linearGradient><linearGradient id="linear-gradient-3" x1="218.56" y1="147.92" x2="316" y2="284.33" gradientUnits="userSpaceOnUse"><stop offset="0.51" stop-color="#231f20" stop-opacity="0"/><stop offset="0.94" stop-color="#634af0"/></linearGradient><linearGradient id="linear-gradient-4" x1="453.58" y1="202.45" x2="99.77" y2="396.79" gradientUnits="userSpaceOnUse"><stop offset="0.51" stop-color="#231f20" stop-opacity="0"/><stop offset="0.64" stop-color="#352b5c" stop-opacity="0.29"/><stop offset="0.82" stop-color="#4e3cab" stop-opacity="0.67"/><stop offset="0.94" stop-color="#5d46dd" stop-opacity="0.91"/><stop offset="1" stop-color="#634af0"/></linearGradient><linearGradient id="linear-gradient-5" x1="-9090.24" y1="-5435.35" x2="-8993.77" y2="-5300.31" gradientTransform="translate(-8955.28 -5178.51) rotate(180)" xlink:href="#linear-gradient"/><linearGradient id="linear-gradient-6" x1="-8856.12" y1="-5381.19" x2="-9209.93" y2="-5186.84" gradientTransform="translate(-8955.28 -5178.51) rotate(180)" xlink:href="#linear-gradient-2"/><linearGradient id="linear-gradient-7" x1="-9090.51" y1="-5435.87" x2="-8993.07" y2="-5299.46" gradientTransform="translate(-8955.28 -5178.51) rotate(180)" xlink:href="#linear-gradient-3"/><linearGradient id="linear-gradient-8" x1="-8855.88" y1="-5380.95" x2="-9209.69" y2="-5186.6" gradientTransform="translate(-8955.28 -5178.51) rotate(180)" xlink:href="#linear-gradient-4"/></defs><polygon class="cls-1" points="232.77 197.81 232.77 197.9 232.69 197.85 232.77 197.81"/><path class="cls-2" d="M344.42,214.86v71.47A10.29,10.29,0,0,1,329,295.24l-62-35.77-74.3-42.89a10.29,10.29,0,0,1,0-17.82L249.49,166a10.26,10.26,0,0,1,10.28,0l84.59,48.83Z"/><path class="cls-3" d="M344.42,214.86v73.43a9.16,9.16,0,0,1-13.74,7.93L267,259.47,191,215.6a9.15,9.15,0,0,1,0-15.86l59-34.07a9.14,9.14,0,0,1,9.16,0l85.15,49.16Z"/><path class="cls-2" d="M344.42,215.19v77.06a21.36,21.36,0,0,1-10.68,18.49l-80,46.19L188,394.88a21.65,21.65,0,0,1-21.63,0l-66.67-38.5,76.52-44.18L267,259.78l77.32-44.64Z"/><line class="cls-1" x1="232.77" y1="197.81" x2="232.69" y2="197.85"/><path class="cls-4" d="M344.42,215.19v76.9a21.63,21.63,0,0,1-10.82,18.73l-79.87,46.11L188,394.88a21.65,21.65,0,0,1-21.63,0l-66.67-38.5,76.52-44.18L267,259.78l77.32-44.64Z"/><path class="cls-2" d="M253.51,356.93l-65.73,37.95a21.63,21.63,0,0,1-21.62,0l-66.68-38.5L9.76,304.58l76.53-44.19L176,312.2Z"/><polygon class="cls-1" points="232.77 197.81 232.77 197.9 232.69 197.85 232.77 197.81"/><path class="cls-5" d="M344.42,214.86v75.53a7.94,7.94,0,0,1-11.92,6.88L267,259.47l-89.73-51.8L254.63,163l89.73,51.8Z"/><path class="cls-6" d="M344.42,214.88v75.94a7.71,7.71,0,0,1-11.57,6.67l-65.82-38-78.16-45.12a7.71,7.71,0,0,1,0-13.35l61.91-35.75a7.68,7.68,0,0,1,7.7,0l85.88,49.58Z"/><path class="cls-5" d="M344.42,215.19v76.9a21.63,21.63,0,0,1-10.82,18.73l-79.87,46.11L188,394.88a21.65,21.65,0,0,1-21.63,0l-66.67-38.5,76.52-44.18L267,259.78l77.32-44.64Z"/><line class="cls-1" x1="232.77" y1="197.81" x2="232.69" y2="197.85"/><path class="cls-7" d="M344.66,215.43v76.9a21.63,21.63,0,0,1-10.82,18.73L254,357.17l-65.72,37.95a21.65,21.65,0,0,1-21.63,0L100,356.62l76.52-44.18L267.26,260l77.32-44.64Z"/><path class="cls-5" d="M253.51,356.93l-65.73,37.95a21.63,21.63,0,0,1-21.62,0l-66.68-38.5L9.76,304.58l76.53-44.19L176,312.2Z"/><polygon class="cls-1" points="121.41 207.08 121.41 206.99 121.49 207.04 121.41 207.08"/><path class="cls-2" d="M9.76,190V118.56a10.29,10.29,0,0,1,15.43-8.91l62,35.77,74.29,42.89a10.29,10.29,0,0,1,0,17.82l-56.75,32.76a10.31,10.31,0,0,1-10.29,0L9.82,190.06Z"/><path class="cls-8" d="M9.76,190V116.6a9.15,9.15,0,0,1,13.73-7.93l63.66,36.75,76,43.87a9.16,9.16,0,0,1,0,15.86l-59,34.07a9.12,9.12,0,0,1-9.15,0L9.82,190.06Z"/><path class="cls-2" d="M9.76,189.7V112.64A21.37,21.37,0,0,1,20.43,94.15l80-46.19L166.16,10a21.65,21.65,0,0,1,21.63,0l66.68,38.5L177.94,92.7,87.15,145.11,9.84,189.75Z"/><line class="cls-1" x1="121.41" y1="207.08" x2="121.49" y2="207.04"/><path class="cls-9" d="M9.76,189.7V112.8A21.64,21.64,0,0,1,20.57,94.07L100.44,48,166.16,10a21.65,21.65,0,0,1,21.63,0l66.68,38.5L177.94,92.7,87.15,145.11,9.84,189.75Z"/><path class="cls-2" d="M100.67,48,166.39,10A21.65,21.65,0,0,1,188,10l66.67,38.5,89.73,51.8L267.88,144.5,178.16,92.7Z"/><polygon class="cls-1" points="121.41 207.08 121.41 206.99 121.49 207.04 121.41 207.08"/><path class="cls-5" d="M9.76,190V114.5a7.94,7.94,0,0,1,11.91-6.88l65.48,37.8,89.72,51.8L99.54,241.86,9.82,190.06Z"/><path class="cls-10" d="M9.38,190.41V114.47a7.7,7.7,0,0,1,11.56-6.67l65.83,38,78.16,45.12a7.71,7.71,0,0,1,0,13.35L103,240a7.7,7.7,0,0,1-7.71,0L9.44,190.44Z"/><path class="cls-5" d="M9.76,189.7V112.8A21.64,21.64,0,0,1,20.57,94.07L100.44,48,166.16,10a21.65,21.65,0,0,1,21.63,0l66.68,38.5L177.94,92.7,87.15,145.11,9.84,189.75Z"/><line class="cls-1" x1="121.41" y1="207.08" x2="121.49" y2="207.04"/><path class="cls-11" d="M9.52,189.46v-76.9A21.64,21.64,0,0,1,20.33,93.83L100.2,47.72,165.92,9.77a21.65,21.65,0,0,1,21.63,0l66.68,38.5L177.7,92.45,86.91,144.87,9.6,189.51Z"/><path class="cls-5" d="M100.67,48,166.39,10A21.65,21.65,0,0,1,188,10l66.67,38.5,89.73,51.8L267.88,144.5,178.16,92.7Z"/><path class="cls-5" d="M448.34,262.26V234.09h99.14q7.59,0,11.74-3.61t4.16-9.93q0-6.68-4.16-10.3t-11.74-3.61H488.07a50.49,50.49,0,0,1-17.42-2.8,38.76,38.76,0,0,1-13.1-7.76,33.16,33.16,0,0,1-8.3-11.92,39.29,39.29,0,0,1-2.89-15.26,41.11,41.11,0,0,1,2.71-15.08,32.77,32.77,0,0,1,8-12,38,38,0,0,1,13.19-7.94A52.27,52.27,0,0,1,488.43,131h95v28.17h-95q-6,0-9.39,3.25t-3.43,9.39q0,6.14,3.52,9.39a13.16,13.16,0,0,0,9.3,3.25h59.05q20.78,0,31.61,9.39t10.83,29.08a45.68,45.68,0,0,1-2.62,15.71,33,33,0,0,1-7.94,12.46,37.32,37.32,0,0,1-13.28,8.21,52.78,52.78,0,0,1-18.6,3Z"/><path class="cls-5" d="M609.06,262.26V131h28.17V262.26Z"/><path class="cls-5" d="M685.63,174.86v87.4H658.9V146q0-7.77,3.79-12.19a12.86,12.86,0,0,1,10.3-4.43,13.75,13.75,0,0,1,5.68,1.18,21.55,21.55,0,0,1,5.69,4.06l86,82.53v-87.4h26.91V247.27q0,8.13-3.89,12.46a13,13,0,0,1-10.2,4.34q-6.14,0-11.56-5.42Z"/><path class="cls-5" d="M817.63,262.26V131h77.29a70.5,70.5,0,0,1,26,4.69,61.14,61.14,0,0,1,20.59,13.19,60.14,60.14,0,0,1,13.54,20.31,67.89,67.89,0,0,1,4.88,26.1,71.24,71.24,0,0,1-4.88,26.54,62.65,62.65,0,0,1-34.13,35.31,64.87,64.87,0,0,1-26,5.14ZM895,234.09a37.9,37.9,0,0,0,14.68-2.8,34.41,34.41,0,0,0,11.62-7.76A36,36,0,0,0,929,211.7a39.22,39.22,0,0,0,2.8-15,39.94,39.94,0,0,0-2.8-15.08,36,36,0,0,0-7.66-11.92A34.55,34.55,0,0,0,909.68,162a37.9,37.9,0,0,0-14.68-2.8H845.8v74.94Z"/><path class="cls-5" d="M976.9,262.26V131h119.36v28.17h-91.19v74.94h91.38v28.17Zm44.42-55.62V184.43H1091v22.21Z"/><path class="cls-5" d="M1105.29,131h34.31l54.9,93.72L1249.22,131h32.32L1207,255a23.18,23.18,0,0,1-5.78,6.59,13.72,13.72,0,0,1-15.62,0,23.91,23.91,0,0,1-5.69-6.59Z"/></svg>