<svg id="Layer_1" data-name="Layer 1" xmlns="http://www.w3.org/2000/svg" xmlns:xlink="http://www.w3.org/1999/xlink" viewBox="0 0 1284.86 408.67"><defs><style>.cls-1{fill:none;stroke:#fff200;stroke-miterlimit:10;stroke-width:0.25px;}.cls-2{fill:#634af0;}.cls-3{fill:url(#linear-gradient);}.cls-4{fill:url(#linear-gradient-2);}.cls-5{fill:url(#linear-gradient-3);}.cls-6{fill:url(#linear-gradient-4);}.cls-7{fill:url(#linear-gradient-5);}.cls-8{fill:url(#linear-gradient-6);}.cls-9{fill:url(#linear-gradient-7);}.cls-10{fill:url(#linear-gradient-8);}</style><linearGradient id="linear-gradient" x1="218.96" y1="147.83" x2="319.1" y2="288.01" gradientUnits="userSpaceOnUse"><stop offset="0.35" stop-color="#231f20" stop-opacity="0"/><stop offset="0.94"/></linearGradient><linearGradient id="linear-gradient-2" x1="461.98" y1="204.05" x2="94.72" y2="405.78" gradientUnits="userSpaceOnUse"><stop offset="0.44" stop-color="#231f20" stop-opacity="0"/><stop offset="1"/></linearGradient><linearGradient id="linear-gradient-3" x1="218.28" y1="147.68" x2="319.43" y2="289.28" gradientUnits="userSpaceOnUse"><stop offset="0.51" stop-color="#231f20" stop-opacity="0"/><stop offset="0.94"/></linearGradient><linearGradient id="linear-gradient-4" x1="461.98" y1="204.05" x2="94.72" y2="405.78" gradientUnits="userSpaceOnUse"><stop offset="0.51" stop-color="#231f20" stop-opacity="0"/><stop offset="1"/></linearGradient><linearGradient id="linear-gradient-5" x1="-9086.78" y1="-3109.93" x2="-8986.64" y2="-2969.75" gradientTransform="translate(-8955.28 -2849.16) rotate(180)" xlink:href="#linear-gradient"/><linearGradient id="linear-gradient-6" x1="-8843.76" y1="-3053.71" x2="-9211.02" y2="-2851.98" gradientTransform="translate(-8955.28 -2849.16) rotate(180)" xlink:href="#linear-gradient-2"/><linearGradient id="linear-gradient-7" x1="-9087.46" y1="-3110.08" x2="-8986.31" y2="-2968.48" gradientTransform="translate(-8955.28 -2849.16) rotate(180)" xlink:href="#linear-gradient-3"/><linearGradient id="linear-gradient-8" x1="-8843.76" y1="-3053.71" x2="-9211.02" y2="-2851.98" gradientTransform="translate(-8955.28 -2849.16) rotate(180)" xlink:href="#linear-gradient-4"/></defs><polygon class="cls-1" points="233.03 199.49 233.03 199.58 232.94 199.53 233.03 199.49"/><path class="cls-2" d="M348.92,217.19v74.19a10.67,10.67,0,0,1-16,9.24l-64.32-37.13L191.47,219a10.67,10.67,0,0,1,0-18.49l58.91-34a10.72,10.72,0,0,1,10.68,0l87.8,50.69Z"/><path class="cls-3" d="M348.92,217.19V293.4a9.51,9.51,0,0,1-14.26,8.24l-66.07-38.15L189.71,218a9.52,9.52,0,0,1,0-16.47L251,166.12a9.53,9.53,0,0,1,9.5,0l88.39,51Z"/><path class="cls-2" d="M348.92,217.53v80a22.14,22.14,0,0,1-11.08,19.19l-83,48L186.57,404a22.45,22.45,0,0,1-22.45,0l-69.21-40,79.44-45.86,94.23-54.41,80.26-46.33Z"/><line class="cls-1" x1="233.03" y1="199.49" x2="232.94" y2="199.53"/><path class="cls-4" d="M348.92,217.53v79.82a22.45,22.45,0,0,1-11.22,19.44l-82.91,47.87L186.57,404a22.45,22.45,0,0,1-22.45,0l-69.21-40,79.44-45.86,94.23-54.41,80.26-46.33Z"/><path class="cls-2" d="M254.55,364.66,186.33,404a22.4,22.4,0,0,1-22.45,0l-69.2-40L1.54,310.32,81,264.45l93.13,53.77Z"/><polygon class="cls-1" points="233.03 199.49 233.03 199.58 232.94 199.53 233.03 199.49"/><path class="cls-2" d="M348.92,217.19v78.4a8.25,8.25,0,0,1-12.37,7.14l-68-39.24-93.14-53.77,80.27-46.34,93.14,53.77Z"/><path class="cls-5" d="M348.92,217.19V296a8,8,0,0,1-12,6.93l-68.33-39.45-81.13-46.84a8,8,0,0,1,0-13.86l64.26-37.1a8,8,0,0,1,8,0l89.14,51.46Z"/><path class="cls-2" d="M348.92,217.53v79.82a22.45,22.45,0,0,1-11.22,19.44l-82.91,47.87L186.57,404a22.45,22.45,0,0,1-22.45,0l-69.21-40,79.44-45.86,94.23-54.41,80.26-46.33Z"/><line class="cls-1" x1="233.03" y1="199.49" x2="232.94" y2="199.53"/><path class="cls-6" d="M348.92,217.53v79.82a22.45,22.45,0,0,1-11.22,19.44l-82.91,47.87L186.57,404a22.45,22.45,0,0,1-22.45,0l-69.21-40,79.44-45.86,94.23-54.41,80.26-46.33Z"/><path class="cls-2" d="M254.55,364.66,186.33,404a22.4,22.4,0,0,1-22.45,0l-69.2-40L1.54,310.32,81,264.45l93.13,53.77Z"/><polygon class="cls-1" points="117.43 209.11 117.43 209.02 117.52 209.06 117.43 209.11"/><path class="cls-2" d="M1.54,191.41V117.22a10.68,10.68,0,0,1,16-9.25l64.31,37.14L159,189.63a10.67,10.67,0,0,1,0,18.49l-58.91,34a10.67,10.67,0,0,1-10.68,0L1.61,191.44Z"/><path class="cls-7" d="M1.54,191.41V115.19A9.5,9.5,0,0,1,15.8,107l66.07,38.15,78.88,45.53a9.5,9.5,0,0,1,0,16.46L99.49,242.47a9.49,9.49,0,0,1-9.5,0l-88.38-51Z"/><path class="cls-2" d="M1.54,191.07v-80A22.16,22.16,0,0,1,12.62,91.89L95.67,43.94,163.89,4.55a22.45,22.45,0,0,1,22.45,0l69.21,40L176.12,90.38l-94.24,54.4L1.62,191.12Z"/><line class="cls-1" x1="117.43" y1="209.11" x2="117.52" y2="209.06"/><path class="cls-8" d="M1.54,191.07V111.25A22.45,22.45,0,0,1,12.76,91.81L95.67,43.94,163.89,4.55a22.45,22.45,0,0,1,22.45,0l69.21,40L176.12,90.38l-94.24,54.4L1.62,191.12Z"/><path class="cls-2" d="M95.91,43.94,164.13,4.55a22.45,22.45,0,0,1,22.45,0l69.21,40,93.13,53.77-79.44,45.87L176.34,90.38Z"/><polygon class="cls-1" points="117.43 209.11 117.43 209.02 117.52 209.06 117.43 209.11"/><path class="cls-2" d="M1.54,191.41V113a8.24,8.24,0,0,1,12.37-7.14l68,39.24L175,198.87,94.74,245.22,1.61,191.44Z"/><path class="cls-9" d="M1.54,191.41V112.59a8,8,0,0,1,12-6.93l68.33,39.45L163,191.94a8,8,0,0,1,0,13.86L98.74,242.91a8,8,0,0,1-8,0L1.61,191.44Z"/><path class="cls-2" d="M1.54,191.07V111.25A22.45,22.45,0,0,1,12.76,91.81L95.67,43.94,163.89,4.55a22.45,22.45,0,0,1,22.45,0l69.21,40L176.12,90.38l-94.24,54.4L1.62,191.12Z"/><line class="cls-1" x1="117.43" y1="209.11" x2="117.52" y2="209.06"/><path class="cls-10" d="M1.54,191.07V111.25A22.45,22.45,0,0,1,12.76,91.81L95.67,43.94,163.89,4.55a22.45,22.45,0,0,1,22.45,0l69.21,40L176.12,90.38l-94.24,54.4L1.62,191.12Z"/><path class="cls-2" d="M95.91,43.94,164.13,4.55a22.45,22.45,0,0,1,22.45,0l69.21,40,93.13,53.77-79.44,45.87L176.34,90.38Z"/><path class="cls-2" d="M448.34,264.14V236h99.14q7.59,0,11.74-3.61t4.16-9.93q0-6.67-4.16-10.29t-11.74-3.61H488.07a50.49,50.49,0,0,1-17.42-2.8,38.94,38.94,0,0,1-13.1-7.77,33.16,33.16,0,0,1-8.3-11.92,39.27,39.27,0,0,1-2.89-15.25,41.07,41.07,0,0,1,2.71-15.08,32.6,32.6,0,0,1,8-12,37.9,37.9,0,0,1,13.19-7.95,52.51,52.51,0,0,1,18.14-2.89h95V161h-95q-6,0-9.39,3.25t-3.43,9.39q0,6.15,3.52,9.39a13.16,13.16,0,0,0,9.3,3.25h59.05q20.78,0,31.61,9.4t10.83,29.07a45.63,45.63,0,0,1-2.62,15.71,32.89,32.89,0,0,1-7.94,12.46,37.48,37.48,0,0,1-13.28,8.22,53,53,0,0,1-18.6,3Z"/><path class="cls-2" d="M609.06,264.14V132.85h28.17V264.14Z"/><path class="cls-2" d="M685.63,176.73v87.41H658.9V147.84q0-7.76,3.79-12.19a12.86,12.86,0,0,1,10.3-4.42,13.75,13.75,0,0,1,5.68,1.17,21.78,21.78,0,0,1,5.69,4.06l86,82.53v-87.4h26.91V249.15q0,8.11-3.89,12.46a13,13,0,0,1-10.2,4.33q-6.14,0-11.56-5.42Z"/><path class="cls-2" d="M817.63,264.14V132.85h77.29a70.3,70.3,0,0,1,26,4.7,61,61,0,0,1,20.59,13.18,60.08,60.08,0,0,1,13.54,20.32,67.81,67.81,0,0,1,4.88,26.09,71.33,71.33,0,0,1-4.88,26.55,64,64,0,0,1-13.54,21.21A63.24,63.24,0,0,1,920.92,259a64.88,64.88,0,0,1-26,5.15ZM895,236a38.08,38.08,0,0,0,14.68-2.79,34.58,34.58,0,0,0,11.62-7.77A36,36,0,0,0,929,213.57a39.22,39.22,0,0,0,2.8-15,39.89,39.89,0,0,0-2.8-15.07,35.78,35.78,0,0,0-7.66-11.92,34.58,34.58,0,0,0-11.62-7.77A38.08,38.08,0,0,0,895,161H845.8V236Z"/><path class="cls-2" d="M976.9,264.14V132.85h119.36V161h-91.19V236h91.38v28.18Zm44.42-55.62V186.3H1091v22.22Z"/><path class="cls-2" d="M1105.29,132.85h34.31l54.9,93.72,54.72-93.72h32.32L1207,256.91a23,23,0,0,1-5.78,6.59,13.72,13.72,0,0,1-15.62,0,23.77,23.77,0,0,1-5.69-6.59Z"/></svg>