<svg width="126" height="40" viewBox="0 0 126 40" fill="none" xmlns="http://www.w3.org/2000/svg">
<g clip-path="url(#clip0_803_504)">
<path d="M22.8086 19.5258V19.5346L22.7998 19.5297L22.8086 19.5258Z" stroke="#FFF200" stroke-width="0.0348692" stroke-miterlimit="10"/>
<path d="M34.1517 21.2582V28.5198C34.1516 28.7031 34.1034 28.8831 34.0117 29.0418C33.9201 29.2005 33.7883 29.3322 33.6296 29.4239C33.4709 29.5155 33.2909 29.5638 33.1077 29.5639C32.9244 29.5639 32.7444 29.5158 32.5856 29.4242L26.2901 25.79L18.7407 21.4354C18.5817 21.3438 18.4497 21.2119 18.3579 21.0531C18.2661 20.8942 18.2178 20.714 18.2178 20.5305C18.2178 20.347 18.2661 20.1668 18.3579 20.0079C18.4497 19.8491 18.5817 19.7172 18.7407 19.6256L24.5067 16.2977C24.6658 16.2064 24.846 16.1583 25.0294 16.1583C25.2128 16.1583 25.393 16.2064 25.5521 16.2977L34.1458 21.2592L34.1517 21.2582Z" fill="#4628F1"/>
<path d="M34.1518 21.2582V28.7175C34.1518 28.8809 34.1088 29.0414 34.0272 29.1829C33.9455 29.3244 33.8281 29.4419 33.6866 29.5236C33.5452 29.6053 33.3848 29.6484 33.2214 29.6485C33.058 29.6486 32.8975 29.6056 32.756 29.5241L26.2892 25.79L18.5685 21.3375C18.4273 21.2556 18.3101 21.138 18.2286 20.9966C18.1471 20.8551 18.1042 20.6947 18.1042 20.5315C18.1042 20.3682 18.1471 20.2078 18.2286 20.0664C18.3101 19.9249 18.4273 19.8073 18.5685 19.7254L24.5675 16.2596C24.709 16.1782 24.8693 16.1354 25.0324 16.1354C25.1956 16.1354 25.3559 16.1782 25.4973 16.2596L34.1488 21.2514L34.1518 21.2582Z" fill="url(#paint0_linear_803_504)"/>
<path d="M34.1517 21.2915V29.1218C34.1518 29.5025 34.0517 29.8766 33.8613 30.2064C33.6709 30.5361 33.397 30.8099 33.0672 31.0001L24.9433 35.6982L18.2611 39.5429C17.927 39.7358 17.5481 39.8373 17.1624 39.8373C16.7767 39.8373 16.3978 39.7358 16.0637 39.5429L9.28955 35.6278L17.065 31.1391L26.2881 25.8135L34.1438 21.2788L34.1517 21.2915Z" fill="#4628F1"/>
<path d="M22.8086 19.5258L22.7998 19.5297" stroke="#FFF200" stroke-width="0.0348692" stroke-miterlimit="10"/>
<path d="M34.1517 21.2915V29.1042C34.1517 29.4898 34.0502 29.8686 33.8574 30.2026C33.6647 30.5366 33.3874 30.814 33.0535 31.0069L24.9384 35.6924L18.2611 39.5429C17.927 39.7358 17.5481 39.8373 17.1624 39.8373C16.7767 39.8373 16.3978 39.7358 16.0637 39.5429L9.28955 35.6278L17.065 31.1391L26.2881 25.8135L34.1438 21.2788L34.1517 21.2915Z" fill="url(#paint1_linear_803_504)"/>
<path d="M24.9149 35.6924L18.2376 39.5429C17.9037 39.7363 17.5247 39.8381 17.1389 39.8381C16.7531 39.8381 16.3741 39.7363 16.0402 39.5429L9.26704 35.6278L0.150635 30.3737L7.92806 25.884L17.0435 31.1469L24.9149 35.6924Z" fill="#4628F1"/>
<path d="M22.8086 19.5258V19.5346L22.7998 19.5297L22.8086 19.5258Z" stroke="#FFF200" stroke-width="0.0348692" stroke-miterlimit="10"/>
<path d="M34.1516 21.2582V28.9319C34.1515 29.0735 34.1141 29.2127 34.0432 29.3353C33.9723 29.4579 33.8704 29.5597 33.7478 29.6305C33.6251 29.7013 33.486 29.7386 33.3443 29.7387C33.2027 29.7387 33.0635 29.7015 32.9408 29.6308L26.2851 25.79L17.1687 20.5271L25.0254 15.9914L34.1418 21.2543L34.1516 21.2582Z" fill="#4628F1"/>
<path d="M34.1516 21.2582V28.972C34.1516 29.1095 34.1154 29.2445 34.0467 29.3636C33.978 29.4827 33.8792 29.5815 33.7601 29.6503C33.6411 29.719 33.5061 29.7552 33.3686 29.7552C33.2311 29.7552 33.0961 29.7191 32.977 29.6503L26.289 25.789L18.3481 21.2044C18.229 21.1357 18.1301 21.0368 18.0613 20.9178C17.9925 20.7987 17.9563 20.6636 17.9563 20.5261C17.9563 20.3886 17.9925 20.2535 18.0613 20.1344C18.1301 20.0154 18.229 19.9165 18.3481 19.8478L24.6378 16.2165C24.7568 16.1478 24.8919 16.1116 25.0293 16.1116C25.1668 16.1116 25.3018 16.1478 25.4208 16.2165L34.1457 21.2533L34.1516 21.2582Z" fill="url(#paint2_linear_803_504)"/>
<path d="M34.1517 21.2915V29.1042C34.1517 29.4898 34.0502 29.8686 33.8574 30.2026C33.6647 30.5366 33.3874 30.814 33.0535 31.0069L24.9384 35.6924L18.2611 39.5429C17.927 39.7358 17.5481 39.8373 17.1624 39.8373C16.7767 39.8373 16.3978 39.7358 16.0637 39.5429L9.28955 35.6278L17.065 31.1391L26.2881 25.8135L34.1438 21.2788L34.1517 21.2915Z" fill="#4628F1"/>
<path d="M22.8086 19.5258L22.7998 19.5297" stroke="#FFF200" stroke-width="0.0348692" stroke-miterlimit="10"/>
<path d="M34.1517 21.2915V29.1042C34.1517 29.4898 34.0502 29.8686 33.8574 30.2026C33.6647 30.5366 33.3874 30.814 33.0535 31.0069L24.9384 35.6924L18.2611 39.5429C17.927 39.7358 17.5481 39.8373 17.1624 39.8373C16.7767 39.8373 16.3978 39.7358 16.0637 39.5429L9.28955 35.6278L17.065 31.1391L26.2881 25.8135L34.1438 21.2788L34.1517 21.2915Z" fill="url(#paint3_linear_803_504)"/>
<path d="M24.9149 35.6924L18.2376 39.5429C17.9037 39.7363 17.5247 39.8381 17.1389 39.8381C16.7531 39.8381 16.3741 39.7363 16.0402 39.5429L9.26704 35.6278L0.150635 30.3737L7.92806 25.884L17.0435 31.1469L24.9149 35.6924Z" fill="#4628F1"/>
<path d="M11.4939 20.4674V20.4586L11.5027 20.4625L11.4939 20.4674Z" stroke="#FFF200" stroke-width="0.0348692" stroke-miterlimit="10"/>
<path d="M0.150635 18.7349V11.4733C0.150818 11.2901 0.199152 11.1101 0.290793 10.9515C0.382434 10.7928 0.514163 10.6611 0.67278 10.5694C0.831396 10.4777 1.01133 10.4293 1.19454 10.429C1.37776 10.4288 1.55782 10.4767 1.71669 10.5679L8.01126 14.2031L15.5626 18.5607C15.7216 18.6523 15.8536 18.7842 15.9454 18.943C16.0372 19.1019 16.0855 19.2821 16.0855 19.4656C16.0855 19.6491 16.0372 19.8293 15.9454 19.9881C15.8536 20.147 15.7216 20.2789 15.5626 20.3705L9.79656 23.6983C9.63768 23.7902 9.4574 23.8385 9.27389 23.8385C9.09037 23.8385 8.9101 23.7902 8.75122 23.6983L0.157486 18.7379L0.150635 18.7349Z" fill="#4628F1"/>
<path d="M0.150635 18.7349V11.2746C0.151174 11.1116 0.194582 10.9515 0.276504 10.8105C0.358426 10.6695 0.475982 10.5526 0.617378 10.4714C0.758774 10.3902 0.919039 10.3476 1.0821 10.3478C1.24515 10.3481 1.40527 10.3913 1.54638 10.473L8.01321 14.207L15.7339 18.6635C15.8753 18.745 15.9928 18.8624 16.0745 19.0038C16.1562 19.1452 16.1993 19.3057 16.1993 19.469C16.1993 19.6323 16.1562 19.7927 16.0745 19.9342C15.9928 20.0756 15.8753 20.193 15.7339 20.2745L9.73783 23.7326C9.59651 23.8143 9.43615 23.8573 9.27291 23.8573C9.10967 23.8573 8.94931 23.8143 8.80799 23.7326L0.157486 18.7408L0.150635 18.7349Z" fill="url(#paint4_linear_803_504)"/>
<path d="M0.150635 18.7016V10.8713C0.150826 10.4908 0.251137 10.117 0.441496 9.78747C0.631855 9.45795 0.90556 9.18431 1.23513 8.99404L9.36393 4.30077L16.0412 0.445332C16.3752 0.252472 16.7542 0.15094 17.1399 0.15094C17.5256 0.15094 17.9045 0.252472 18.2386 0.445332L25.0127 4.36047L17.2383 8.84624L8.01419 14.1708L0.158465 18.7065L0.150635 18.7016Z" fill="#4628F1"/>
<path d="M11.4939 20.4674L11.5027 20.4625" stroke="#FFF200" stroke-width="0.0348692" stroke-miterlimit="10"/>
<path d="M0.150635 18.7016V10.889C0.150624 10.5033 0.252101 10.1245 0.44487 9.79049C0.63764 9.45649 0.914912 9.17911 1.24883 8.98621L9.36393 4.30077L16.0412 0.445332C16.3752 0.252472 16.7542 0.15094 17.1399 0.15094C17.5256 0.15094 17.9045 0.252472 18.2386 0.445332L25.0127 4.36047L17.2383 8.84624L8.01419 14.1708L0.158465 18.7065L0.150635 18.7016Z" fill="url(#paint5_linear_803_504)"/>
<path d="M9.38745 4.30077L16.0647 0.445332C16.3988 0.252472 16.7777 0.15094 17.1634 0.15094C17.5491 0.15094 17.928 0.252472 18.2621 0.445332L25.0363 4.36047L34.1517 9.6234L26.3762 14.1131L17.2598 8.84624L9.38745 4.30077Z" fill="#4628F1"/>
<path d="M11.4939 20.4674V20.4586L11.5027 20.4625L11.4939 20.4674Z" stroke="#FFF200" stroke-width="0.0348692" stroke-miterlimit="10"/>
<path d="M0.150635 18.7349V11.0603C0.150468 10.9185 0.187663 10.7792 0.258472 10.6564C0.329281 10.5336 0.431204 10.4317 0.553971 10.3608C0.676738 10.29 0.816013 10.2527 0.957764 10.2528C1.09951 10.2529 1.23873 10.2904 1.36139 10.3614L8.01713 14.2022L17.1286 19.4651L9.27291 24.0018L0.157487 18.7379L0.150635 18.7349Z" fill="#4628F1"/>
<path d="M0.150635 18.7349V11.0201C0.150604 10.8827 0.186762 10.7476 0.255475 10.6286C0.324187 10.5095 0.423032 10.4106 0.542073 10.3419C0.661113 10.2731 0.796154 10.2369 0.933619 10.2369C1.07108 10.2369 1.20613 10.2731 1.32518 10.3418L8.01321 14.2032L15.9541 18.7868C16.0732 18.8555 16.1721 18.9544 16.2409 19.0734C16.3097 19.1925 16.3459 19.3276 16.3459 19.4651C16.3459 19.6026 16.3097 19.7377 16.2409 19.8568C16.1721 19.9758 16.0732 20.0747 15.9541 20.1434L9.66442 23.7757C9.54539 23.8444 9.41036 23.8806 9.27291 23.8806C9.13546 23.8806 9.00043 23.8444 8.88139 23.7757L0.157486 18.7379L0.150635 18.7349Z" fill="url(#paint6_linear_803_504)"/>
<path d="M0.150635 18.7016V10.889C0.150624 10.5033 0.252101 10.1245 0.44487 9.79049C0.63764 9.45649 0.914912 9.17911 1.24883 8.98621L9.36393 4.30077L16.0412 0.445332C16.3752 0.252472 16.7542 0.15094 17.1399 0.15094C17.5256 0.15094 17.9045 0.252472 18.2386 0.445332L25.0127 4.36047L17.2383 8.84624L8.01419 14.1708L0.158465 18.7065L0.150635 18.7016Z" fill="#4628F1"/>
<path d="M11.4939 20.4674L11.5027 20.4625" stroke="#FFF200" stroke-width="0.0348692" stroke-miterlimit="10"/>
<path d="M0.150635 18.7016V10.889C0.150624 10.5033 0.252101 10.1245 0.44487 9.79049C0.63764 9.45649 0.914912 9.17911 1.24883 8.98621L9.36393 4.30077L16.0412 0.445332C16.3752 0.252472 16.7542 0.15094 17.1399 0.15094C17.5256 0.15094 17.9045 0.252472 18.2386 0.445332L25.0127 4.36047L17.2383 8.84624L8.01419 14.1708L0.158465 18.7065L0.150635 18.7016Z" fill="url(#paint7_linear_803_504)"/>
<path d="M9.38745 4.30077L16.0647 0.445332C16.3988 0.252472 16.7777 0.15094 17.1634 0.15094C17.5491 0.15094 17.928 0.252472 18.2621 0.445332L25.0363 4.36047L34.1517 9.6234L26.3762 14.1131L17.2598 8.84624L9.38745 4.30077Z" fill="#4628F1"/>
<path d="M43.8828 25.8536V23.0993H53.5865C54.0817 23.0993 54.4647 22.9815 54.7355 22.746C55.0063 22.5104 55.1421 22.1864 55.1427 21.774C55.1427 21.3388 55.007 21.0031 54.7355 20.7669C54.4641 20.5307 54.0811 20.4129 53.5865 20.4135H47.7715C47.1915 20.423 46.6143 20.3302 46.0665 20.1395C45.5932 19.9728 45.1574 19.7144 44.7842 19.379C44.4306 19.0549 44.1531 18.6564 43.9719 18.2122C43.7792 17.7385 43.683 17.231 43.689 16.7196C43.684 16.2153 43.774 15.7146 43.9542 15.2436C44.1243 14.7985 44.3918 14.3972 44.7373 14.0691C45.1098 13.7241 45.5492 13.4592 46.0283 13.2909C46.5989 13.093 47.1999 12.9973 47.8038 13.008H57.1023V15.7584H47.8038C47.4123 15.7584 47.1059 15.8645 46.8847 16.0765C46.6635 16.2886 46.5516 16.595 46.549 16.9956C46.549 17.3969 46.6638 17.7033 46.8935 17.9147C47.1443 18.1346 47.4706 18.2486 47.8038 18.2328H53.5835C54.9395 18.2328 55.9708 18.5395 56.6775 19.1529C57.3841 19.7662 57.7375 20.7147 57.7375 21.9982C57.7428 22.5218 57.656 23.0423 57.481 23.5359C57.3178 23.9961 57.0521 24.4131 56.7039 24.7554C56.3319 25.1119 55.889 25.3861 55.4041 25.56C54.8196 25.7658 54.203 25.8653 53.5835 25.8536H43.8828Z" fill="#4628F1"/>
<path d="M59.6138 25.8536V13.0031H62.371V25.8536H59.6138Z" fill="#4628F1"/>
<path d="M67.1085 17.2981V25.8536H64.4922V14.4704C64.4922 13.964 64.6158 13.5663 64.8631 13.2772C64.9876 13.1337 65.143 13.0202 65.3176 12.9453C65.4922 12.8704 65.6815 12.8359 65.8713 12.8446C66.0626 12.8428 66.2522 12.8819 66.4272 12.9591C66.6331 13.0607 66.8211 13.1949 66.9842 13.3565L75.4017 21.4344V12.8798H78.0356V24.3864C78.0356 24.9156 77.9087 25.3221 77.6549 25.606C77.53 25.7458 77.3757 25.8563 77.2031 25.9296C77.0305 26.0029 76.8439 26.0371 76.6565 26.0298C76.2559 26.0298 75.8787 25.853 75.525 25.4993L67.1085 17.2981Z" fill="#4628F1"/>
<path d="M80.0283 25.8536V13.0032H87.5933C88.4631 12.9943 89.3266 13.1504 90.1382 13.4632C90.8901 13.7528 91.5757 14.1916 92.1535 14.7532C92.7267 15.3185 93.1778 15.9954 93.4788 16.7421C93.8047 17.5536 93.967 18.4214 93.9564 19.2958C93.9641 20.1845 93.8019 21.0665 93.4788 21.8944C93.1788 22.6673 92.7283 23.373 92.1535 23.9704C91.5801 24.5598 90.895 25.0289 90.1382 25.3505C89.3336 25.6919 88.4673 25.8635 87.5933 25.8546L80.0283 25.8536ZM87.6012 23.0993C88.0935 23.1041 88.5818 23.0113 89.038 22.8263C89.465 22.6528 89.852 22.394 90.1754 22.0657C90.501 21.7321 90.7572 21.3372 90.929 20.9039C91.1156 20.4372 91.2088 19.9384 91.2031 19.4357C91.208 18.931 91.1149 18.43 90.929 17.9607C90.7594 17.5257 90.5045 17.129 90.1793 16.794C89.8559 16.4657 89.4689 16.2069 89.0419 16.0335C88.5846 15.8473 88.0949 15.7538 87.6012 15.7584H82.7856V23.0993H87.6012Z" fill="#4628F1"/>
<path d="M95.6174 25.8536V13.0031H107.3V15.7584H98.3747V23.0993H107.319V25.8575L95.6174 25.8536ZM99.9652 20.4096V18.2347H106.785V20.4096H99.9652Z" fill="#4628F1"/>
<path d="M108.184 13.0031H111.542L116.916 22.1763L122.272 13.0031H125.435L118.139 25.1459C117.994 25.3952 117.802 25.6142 117.574 25.791C117.349 25.9465 117.082 26.0298 116.809 26.0298C116.536 26.0298 116.269 25.9465 116.045 25.791C115.821 25.6121 115.632 25.3934 115.488 25.1459L108.184 13.0031Z" fill="#4628F1"/>
</g>
<defs>
<linearGradient id="paint0_linear_803_504" x1="21.4315" y1="14.4694" x2="31.233" y2="28.19" gradientUnits="userSpaceOnUse">
<stop offset="0.35" stop-color="#231F20" stop-opacity="0"/>
<stop offset="0.94"/>
</linearGradient>
<linearGradient id="paint1_linear_803_504" x1="45.2178" y1="19.9721" x2="9.27095" y2="39.7171" gradientUnits="userSpaceOnUse">
<stop offset="0.44" stop-color="#231F20" stop-opacity="0"/>
<stop offset="1"/>
</linearGradient>
<linearGradient id="paint2_linear_803_504" x1="21.3647" y1="14.4547" x2="31.2651" y2="28.3143" gradientUnits="userSpaceOnUse">
<stop offset="0.51" stop-color="#231F20" stop-opacity="0"/>
<stop offset="0.94"/>
</linearGradient>
<linearGradient id="paint3_linear_803_504" x1="45.2178" y1="19.9721" x2="9.27095" y2="39.7171" gradientUnits="userSpaceOnUse">
<stop offset="0.51" stop-color="#231F20" stop-opacity="0"/>
<stop offset="1"/>
</linearGradient>
<linearGradient id="paint4_linear_803_504" x1="12.8709" y1="25.5238" x2="3.06937" y2="11.8032" gradientUnits="userSpaceOnUse">
<stop offset="0.35" stop-color="#231F20" stop-opacity="0"/>
<stop offset="0.94"/>
</linearGradient>
<linearGradient id="paint5_linear_803_504" x1="-10.9155" y1="20.021" x2="25.0313" y2="0.276002" gradientUnits="userSpaceOnUse">
<stop offset="0.44" stop-color="#231F20" stop-opacity="0"/>
<stop offset="1"/>
</linearGradient>
<linearGradient id="paint6_linear_803_504" x1="12.9375" y1="25.5385" x2="3.03707" y2="11.6789" gradientUnits="userSpaceOnUse">
<stop offset="0.51" stop-color="#231F20" stop-opacity="0"/>
<stop offset="0.94"/>
</linearGradient>
<linearGradient id="paint7_linear_803_504" x1="-10.9155" y1="20.021" x2="25.0313" y2="0.276002" gradientUnits="userSpaceOnUse">
<stop offset="0.51" stop-color="#231F20" stop-opacity="0"/>
<stop offset="1"/>
</linearGradient>
<clipPath id="clip0_803_504">
<rect width="125.76" height="40" fill="white"/>
</clipPath>
</defs>
</svg>
