<svg width="40" height="40" viewBox="0 0 40 40" fill="none" xmlns="http://www.w3.org/2000/svg">
<path d="M28.4756 7.79391C27.7488 8.64571 27.408 10.5537 28.1463 12.4959C28.8845 14.438 30.0202 14.0177 30.7244 15.9939C31.6557 18.6061 31.2241 22.1155 31.2241 22.1155C31.2241 22.1155 32.3485 25.3637 33.1321 21.9111C34.8698 15.426 28.4756 9.3953 28.4756 7.79391Z" fill="url(#paint0_radial_302_19)"/>
<path d="M19.5714 34.7222C27.0559 34.7222 33.1094 28.6346 33.1094 21.1161C33.1094 13.5975 27.0445 7.52133 19.5714 7.52133C12.0983 7.52133 6.04482 13.6089 6.04482 21.1161C6.03346 28.6346 12.0983 34.7222 19.5714 34.7222Z" fill="url(#paint1_radial_302_19)"/>
<path d="M29.7136 29.5091C29.4183 29.7136 29.1117 29.8953 28.7937 30.0656C29.2139 29.441 29.6114 28.805 29.9635 28.1463C30.2474 27.8282 30.52 27.5216 30.7358 27.1809C30.838 27.0105 30.9629 26.8174 31.0878 26.5789C31.8488 25.2047 32.6892 22.99 32.7119 20.7186V20.5482C32.7119 19.9803 32.6551 19.4011 32.5416 18.8446C32.5529 18.89 32.5529 18.9355 32.5643 18.9809C32.5529 18.9468 32.5529 18.9127 32.5416 18.8787C32.5529 18.9355 32.5643 19.0036 32.5756 19.0604C32.7346 20.3778 32.6211 21.6612 32.0646 22.6152C32.0532 22.6266 32.0418 22.6379 32.0418 22.6607C32.3258 21.2183 32.428 19.6283 32.11 18.0382C32.11 18.0382 31.9851 17.2659 31.031 14.915C30.4859 13.5634 29.5092 12.4504 28.6574 11.644C27.9078 10.7127 27.215 10.0881 26.8402 9.69058C26.0565 8.8615 25.7272 8.23684 25.5909 7.83934C25.4773 7.78255 23.9668 6.31745 23.8532 6.26067C23.1945 7.28283 21.1388 10.4629 22.1155 13.4271C22.5585 14.7787 23.6828 16.1756 24.864 16.9593C24.9208 17.0161 25.5682 17.7202 25.8748 19.3102C26.1928 20.9571 26.0225 22.2291 25.3751 24.1258C24.6028 25.7839 22.6266 27.4307 20.7754 27.6011C16.823 27.9645 15.3693 25.6136 15.3693 25.6136C16.7776 26.1814 18.3449 26.0565 19.2989 25.4773C20.2529 24.8867 20.8322 24.4438 21.3092 24.6141C21.7748 24.7845 22.1382 24.2848 21.8089 23.7623C21.2864 22.9559 20.3324 22.5471 19.3898 22.7061C18.4358 22.8651 17.5499 23.626 16.3006 22.8878C16.2211 22.8424 16.1416 22.7856 16.0621 22.7288C15.9826 22.672 16.3346 22.8083 16.2438 22.7515C16.0053 22.6152 15.5623 22.3313 15.4601 22.2291C15.4374 22.2064 15.6532 22.2972 15.6305 22.2745C14.4607 21.3091 14.6083 20.6504 14.6424 20.2415C14.6765 19.9122 14.8809 19.492 15.2443 19.3216C15.4147 19.4125 15.5283 19.492 15.5283 19.492C15.5283 19.492 15.4488 19.3443 15.4147 19.2648C15.4261 19.2535 15.4374 19.2648 15.4601 19.2535C15.6078 19.3216 15.9144 19.5033 16.0848 19.6055C16.3006 19.7532 16.3687 19.8895 16.3687 19.8895C16.3687 19.8895 16.4255 19.8554 16.3801 19.7305C16.3687 19.6737 16.3006 19.5033 16.0848 19.333H16.0961C16.2211 19.4011 16.346 19.492 16.4596 19.5828C16.5164 19.367 16.6299 19.1399 16.6072 18.731C16.5959 18.4471 16.5959 18.3676 16.5504 18.254C16.505 18.1632 16.5731 18.1177 16.6527 18.2199C16.6413 18.1404 16.6186 18.0609 16.5845 17.9928V17.9814C16.6867 17.6407 18.6629 16.7435 18.8105 16.6413C19.049 16.4709 19.2421 16.2551 19.3898 16.0053C19.5033 15.8349 19.5828 15.585 19.6056 15.2102C19.6169 14.9377 19.492 14.756 17.4817 14.5515C16.9366 14.4947 16.6072 14.0972 16.4255 13.7338C16.3914 13.6543 16.3574 13.5861 16.3233 13.5066C16.2892 13.4271 16.2665 13.3363 16.2438 13.2454C16.5731 12.3028 17.1183 11.5078 17.936 10.9058C17.9815 10.8604 17.7543 10.9172 17.7997 10.8717C17.8565 10.8263 18.1859 10.69 18.254 10.656C18.3335 10.6219 17.9247 10.4402 17.5612 10.4856C17.1978 10.531 17.1183 10.5765 16.9139 10.656C16.9934 10.5765 17.2546 10.4629 17.1978 10.4742C16.8003 10.531 16.3119 10.7695 15.8917 11.0307C15.8917 10.9853 15.9031 10.9399 15.9144 10.8945C15.7213 10.974 15.233 11.3147 15.0967 11.5986C15.1081 11.5418 15.1081 11.485 15.1081 11.4283C14.9604 11.5532 14.8241 11.6895 14.7105 11.8485L14.6424 11.8712C13.5067 11.4169 12.4959 11.3828 11.6554 11.5873C11.4737 11.4055 11.3828 11.5418 10.9513 10.6105C10.9172 10.5537 10.974 10.6673 10.9513 10.6105C10.8831 10.4288 10.9967 10.849 10.9513 10.6105C10.2471 11.1784 9.31581 11.8144 8.86152 12.2573C8.86152 12.2801 9.38395 12.1097 8.86152 12.2573C8.6798 12.3141 8.69116 12.4163 8.66844 13.4044C8.65708 13.4839 8.66844 13.5634 8.65708 13.6316C8.29365 14.0859 8.05514 14.472 7.96429 14.6765C7.49863 15.4715 6.98755 16.7208 6.49919 18.6856C6.71498 18.1518 6.9762 17.6407 7.28285 17.1524C6.87398 18.1972 6.47647 19.844 6.39697 22.3654C6.49919 21.8429 6.62412 21.3319 6.78312 20.8208C6.68091 22.9219 7.04434 25.0116 7.83936 26.9537C8.12329 27.6465 8.58894 28.7028 9.39531 29.8612C11.9166 32.5075 15.4601 34.1543 19.3898 34.1543C23.4898 34.1543 27.1809 32.3598 29.7136 29.5091Z" fill="url(#paint2_linear_302_19)"/>
<path d="M26.6698 31.4285C31.633 30.8493 33.8363 25.7385 31.0084 25.6363C28.4643 25.5568 24.3189 31.7011 26.6698 31.4285Z" fill="url(#paint3_radial_302_19)"/>
<path d="M31.3718 24.5914C34.7903 22.6039 33.8931 18.3108 33.8931 18.3108C33.8931 18.3108 32.5756 19.844 31.6784 22.2859C30.8039 24.705 29.3161 25.7953 31.3718 24.5914Z" fill="url(#paint4_radial_302_19)"/>
<path d="M20.5255 33.9726C25.2956 35.4945 29.3842 31.7352 26.8629 30.4859C24.5687 29.3615 18.2654 33.2571 20.5255 33.9726Z" fill="url(#paint5_radial_302_19)"/>
<path d="M31.7352 26.42C31.8488 26.261 32.0078 25.7385 32.144 25.5C32.9845 24.1371 32.9958 23.0582 32.9958 23.0355C33.5069 20.5028 33.4615 19.4579 33.1435 17.5499C32.8936 16.0053 31.792 13.7906 30.838 12.7344C29.8612 11.6327 30.5427 11.9961 29.6 11.1898C28.7709 10.2698 27.9532 9.34987 27.5216 8.98644C24.3416 6.32882 24.4097 5.76095 24.4778 5.67009C24.4665 5.68145 24.4551 5.69281 24.4324 5.71552C24.3983 5.56788 24.3643 5.44295 24.3643 5.44295C24.3643 5.44295 22.6152 7.16926 22.2518 10.0654C22.0133 11.9507 22.7175 13.9269 23.751 15.1875C24.2848 15.8463 24.8867 16.4369 25.5454 16.9593C26.3177 18.0723 26.7493 19.4465 26.7493 20.923C26.7493 24.6255 23.751 27.6125 20.0485 27.6125C19.5488 27.6125 19.0377 27.5557 18.5493 27.4421C16.8003 27.1128 15.8008 26.2269 15.2898 25.6249C15.0058 25.2842 14.8809 25.0344 14.8809 25.0344C16.4482 25.5909 18.1745 25.4773 19.2307 24.8981C20.287 24.3075 20.9343 23.8759 21.4568 24.0463C21.9679 24.2166 22.3767 23.7169 22.0133 23.2058C21.6499 22.6947 20.7186 21.9565 19.333 22.161C18.2767 22.32 17.3 23.0695 15.9144 22.3427C15.8235 22.2972 15.7327 22.2405 15.6532 22.195C15.5623 22.1382 15.9485 22.2745 15.8576 22.2177C15.585 22.0815 15.108 21.7975 14.9831 21.6953C14.9604 21.6726 15.1875 21.7634 15.1762 21.7407C13.8814 20.7867 14.0404 20.1393 14.0745 19.7305C14.1086 19.4011 14.3471 18.9923 14.7446 18.8219C14.9377 18.9128 15.0512 18.9923 15.0512 18.9923C15.0512 18.9923 14.9717 18.8446 14.9263 18.7651C14.9377 18.7537 14.9604 18.7651 14.9717 18.7537C15.1307 18.8219 15.4828 18.9923 15.6645 19.1058C15.903 19.2535 15.9825 19.3898 15.9825 19.3898C15.9825 19.3898 16.0507 19.3557 15.9939 19.2308C15.9712 19.174 15.903 19.0036 15.6645 18.8333H15.6759C15.8122 18.9014 15.9485 18.9923 16.0734 19.0831C16.1416 18.8673 16.2551 18.6402 16.2324 18.2313C16.2211 17.9474 16.2211 17.8679 16.1643 17.7657C16.1188 17.6748 16.187 17.6294 16.2778 17.7316C16.2665 17.6521 16.2324 17.5839 16.1983 17.5044V17.4931C16.3119 17.1524 18.5039 16.2665 18.6629 16.1643C18.9241 16.0053 19.1399 15.7895 19.3102 15.5396C19.4352 15.3693 19.526 15.1194 19.5488 14.7446C19.5601 14.5742 19.5033 14.4493 18.9241 14.313C18.572 14.2335 18.0382 14.1654 17.1978 14.0859C16.5958 14.0291 16.2324 13.6429 16.028 13.2795C15.9939 13.2 15.9485 13.1319 15.9144 13.0637C15.8803 12.9842 15.8463 12.8934 15.8235 12.8139C16.187 11.8598 16.8457 11.0535 17.6975 10.497C17.7429 10.4515 17.5044 10.5083 17.5499 10.4629C17.6066 10.4175 17.9814 10.2812 18.0496 10.2471C18.1404 10.213 17.6861 10.0427 17.2773 10.0767C16.8684 10.1222 16.7889 10.1562 16.5618 10.2471C16.6526 10.1676 16.9366 10.0654 16.8684 10.0654C16.4596 10.1108 15.9144 10.338 15.4488 10.5992C15.4488 10.5537 15.4601 10.5083 15.4715 10.4629C15.2557 10.5424 14.7219 10.8831 14.5629 11.167C14.5742 11.1103 14.5742 11.0535 14.5742 11.008C14.4152 11.133 14.2562 11.2693 14.1313 11.4283L14.1199 11.4396C12.8593 10.9853 11.7463 10.9513 10.815 11.1557C10.6105 10.974 10.2812 10.69 9.81551 9.77009C9.78144 9.71331 9.77008 9.88367 9.74737 9.82688C9.56565 9.40666 9.45208 8.71386 9.47479 8.23685C9.47479 8.23685 9.1 8.40721 8.79335 9.12273C8.73657 9.24766 8.70249 9.32716 8.65706 9.3953C8.63435 9.41802 8.69114 9.1568 8.69114 9.17951C8.63435 9.27037 8.49806 9.3953 8.44127 9.56566C8.39584 9.69059 8.33906 9.75874 8.30499 9.90638L8.29363 9.91774C8.29363 9.87231 8.30499 9.73602 8.29363 9.75874C8.14598 10.054 8.02105 10.3607 7.91884 10.6673C7.74848 11.2125 7.5554 11.9621 7.52133 12.9388C7.50997 13.0069 7.52133 13.0978 7.50997 13.1659C7.11247 13.6202 6.83989 14.0064 6.73767 14.1995C6.22659 14.9945 5.65873 16.2211 5.11357 18.1745C5.35208 17.6407 5.64737 17.1296 5.98809 16.6526C5.5338 17.6862 5.09086 19.3216 5 21.8202C5.11357 21.2978 5.24986 20.7867 5.42022 20.287C5.34072 21.9565 5.5338 24.0349 6.59003 26.3745C7.21468 27.7488 8.65706 30.5427 12.1892 32.7233C12.1892 32.7233 13.3931 33.6205 15.4488 34.2906C15.5964 34.3474 15.7554 34.4042 15.9144 34.4496C15.869 34.4269 15.8122 34.4042 15.7668 34.3928C17.141 34.8017 18.5607 35.0175 20.003 35.0175C25.341 35.0175 26.9197 32.8709 26.9197 32.8709L26.9083 32.8823C26.9878 32.8141 27.056 32.7346 27.1241 32.6665C26.2837 33.4615 24.3529 33.5183 23.6374 33.4615C24.864 33.0981 25.6704 32.7914 27.2377 32.2008C27.4194 32.1327 27.6125 32.0532 27.8055 31.9623L27.8623 31.9283C27.8964 31.9055 27.9418 31.8942 27.9759 31.8715C28.7368 31.508 29.4637 31.0651 30.1224 30.5313C31.7011 29.2706 32.0418 28.0441 32.2235 27.2377C32.2008 27.3172 32.1213 27.4989 32.0645 27.6125C31.6557 28.4756 30.7584 29.0208 29.7817 29.4751C30.2474 28.8618 30.6789 28.2258 31.0765 27.567C31.3945 27.249 31.4853 26.7493 31.7352 26.42Z" fill="url(#paint6_radial_302_19)"/>
<path d="M29.8158 29.4296C30.4632 28.7255 31.0311 27.9078 31.474 26.9878C32.5984 24.6255 34.3361 20.6845 32.9732 16.5845C31.8942 13.3363 30.4064 11.5645 28.5211 9.82687C25.4546 7.01025 24.6028 5.74958 24.6028 5C24.6028 5 21.0593 8.941 22.5926 13.0637C24.1258 17.1864 27.2718 17.0274 29.3502 21.3205C31.8034 26.3745 27.374 31.8942 23.7056 33.4388C23.9327 33.3933 31.8488 31.5989 32.269 27.0673C32.2463 27.1468 32.0646 28.4075 29.8158 29.4296Z" fill="url(#paint7_radial_302_19)"/>
<path d="M19.5488 14.7446C19.5601 14.472 19.4239 14.3017 17.2092 14.0859C16.3006 14.0064 15.9485 13.1659 15.8463 12.8025C15.5283 13.6429 15.392 14.5288 15.4601 15.5964C15.5056 16.3006 15.9826 17.0501 16.1984 17.4817C16.1984 17.4817 16.2438 17.4136 16.2665 17.3909C16.6867 16.9479 18.4585 16.2778 18.6288 16.187C18.8219 16.0734 19.5261 15.5623 19.5488 14.7446Z" fill="url(#paint8_linear_302_19)"/>
<path d="M9.81545 9.77009C9.78138 9.7133 9.77002 9.88366 9.74731 9.82687C9.56559 9.40665 9.45202 8.72521 9.48609 8.23685C9.48609 8.23685 9.1113 8.40721 8.80465 9.12272C8.74786 9.24765 8.71379 9.32715 8.66836 9.3953C8.64565 9.41801 8.70243 9.15679 8.70243 9.17951C8.64565 9.27036 8.50936 9.3953 8.45257 9.5543C8.40714 9.67923 8.35036 9.75873 8.31628 9.91773C8.30493 9.96316 8.32764 9.72466 8.31628 9.75873C7.58941 11.1557 7.45313 13.2681 7.53263 13.1773C9.07723 11.5305 10.8376 11.1443 10.8376 11.1443C10.6218 11.008 10.213 10.5992 9.81545 9.77009Z" fill="url(#paint9_linear_302_19)"/>
<path d="M15.6532 26.9651C13.5293 26.0565 11.1102 24.7731 11.2011 21.8657C11.326 18.0382 14.7787 18.7878 14.7787 18.7878C14.6537 18.8219 14.3016 19.0718 14.1767 19.333C14.0518 19.6623 13.8133 20.4119 14.5288 21.1956C15.6645 22.4222 12.2005 24.1031 17.5385 27.2831C17.6748 27.3513 16.2892 27.2377 15.6532 26.9651Z" fill="url(#paint10_linear_302_19)"/>
<path d="M14.9037 25.0571C16.4142 25.5795 18.1632 25.4886 19.2194 24.9094C19.9236 24.5119 20.8322 23.8873 21.3773 24.0463C20.9003 23.8532 20.5369 23.7623 20.094 23.751C20.0145 23.751 19.935 23.751 19.8554 23.7396C19.6964 23.7396 19.5374 23.751 19.3784 23.7623C19.1059 23.785 18.8106 23.9554 18.538 23.9327C18.5266 23.9327 18.7992 23.8191 18.7765 23.8191C18.6289 23.8532 18.4699 23.8532 18.3109 23.8759C18.2086 23.8873 18.1178 23.8986 18.0042 23.91C14.8582 24.1712 12.212 22.2064 12.212 22.2064C11.9848 22.956 13.2228 24.4665 14.9037 25.0571Z" fill="url(#paint11_linear_302_19)"/>
<path d="M29.8045 29.4524C32.9845 26.3291 34.5859 22.5471 33.9045 18.2881C33.9045 18.2881 34.177 20.4687 33.1435 22.6947C33.6432 20.5141 33.7 17.8111 32.3826 15.0058C30.6336 11.2693 27.7488 9.29308 26.6471 8.47535C24.9776 7.22605 24.2848 5.96538 24.2734 5.70416C23.7737 6.72632 22.2632 10.2244 24.1144 13.2341C25.8408 16.0621 28.5665 16.8911 30.4632 19.4806C33.984 24.2621 29.8045 29.4524 29.8045 29.4524Z" fill="url(#paint12_linear_302_19)"/>
<path d="M29.3501 21.3319C28.2371 19.0377 26.8515 18.0382 25.5454 16.9593C25.6931 17.1751 25.7385 17.2432 25.818 17.3909C26.9764 18.6174 28.6687 21.6158 27.4421 25.3864C25.1138 32.4734 15.8235 29.1343 14.8468 28.203C15.2443 32.303 22.1041 34.2679 26.5789 31.6102C29.1116 29.1798 31.1673 25.0911 29.3501 21.3319Z" fill="url(#paint13_linear_302_19)"/>
<defs>
<radialGradient id="paint0_radial_302_19" cx="0" cy="0" r="1" gradientUnits="userSpaceOnUse" gradientTransform="translate(33.5224 14.2688) rotate(2.26042) scale(10.4589 15.4158)">
<stop offset="0.1" stop-color="#FFEA00"/>
<stop offset="0.17" stop-color="#FFDE00"/>
<stop offset="0.28" stop-color="#FFBF00"/>
<stop offset="0.43" stop-color="#FF8E00"/>
<stop offset="0.77" stop-color="#FF272D"/>
<stop offset="0.87" stop-color="#E0255A"/>
<stop offset="0.95" stop-color="#CC2477"/>
<stop offset="1" stop-color="#C42482"/>
</radialGradient>
<radialGradient id="paint1_radial_302_19" cx="0" cy="0" r="1" gradientUnits="userSpaceOnUse" gradientTransform="translate(24.0245 9.64242) scale(29.681)">
<stop stop-color="#00CCDA"/>
<stop offset="0.22" stop-color="#0083FF"/>
<stop offset="0.26" stop-color="#007AF9"/>
<stop offset="0.33" stop-color="#005FE7"/>
<stop offset="0.44" stop-color="#2639AD"/>
<stop offset="0.52" stop-color="#401E84"/>
<stop offset="0.57" stop-color="#4A1475"/>
</radialGradient>
<linearGradient id="paint2_linear_302_19" x1="21.4843" y1="27.236" x2="15.646" y2="8.1379" gradientUnits="userSpaceOnUse">
<stop stop-color="#000F43" stop-opacity="0.4"/>
<stop offset="0.48" stop-color="#001962" stop-opacity="0.17"/>
<stop offset="1" stop-color="#002079" stop-opacity="0"/>
</linearGradient>
<radialGradient id="paint3_radial_302_19" cx="0" cy="0" r="1" gradientUnits="userSpaceOnUse" gradientTransform="translate(34.4389 24.9681) rotate(5.6174) scale(9.9777)">
<stop stop-color="#FFEA00"/>
<stop offset="0.5" stop-color="#FF272D"/>
<stop offset="1" stop-color="#C42482"/>
</radialGradient>
<radialGradient id="paint4_radial_302_19" cx="0" cy="0" r="1" gradientUnits="userSpaceOnUse" gradientTransform="translate(34.4769 15.3585) rotate(5.61742) scale(16.6617)">
<stop stop-color="#FFE900"/>
<stop offset="0.16" stop-color="#FFAF0E"/>
<stop offset="0.32" stop-color="#FF7A1B"/>
<stop offset="0.47" stop-color="#FF4E26"/>
<stop offset="0.62" stop-color="#FF2C2E"/>
<stop offset="0.76" stop-color="#FF1434"/>
<stop offset="0.89" stop-color="#FF0538"/>
<stop offset="1" stop-color="#FF0039"/>
</radialGradient>
<radialGradient id="paint5_radial_302_19" cx="0" cy="0" r="1" gradientUnits="userSpaceOnUse" gradientTransform="translate(35.3104 30.9602) rotate(5.61742) scale(15.289)">
<stop stop-color="#FF272D"/>
<stop offset="0.5" stop-color="#C42482"/>
<stop offset="0.99" stop-color="#620700"/>
</radialGradient>
<radialGradient id="paint6_radial_302_19" cx="0" cy="0" r="1" gradientUnits="userSpaceOnUse" gradientTransform="translate(26.8002 17.0169) scale(23.8545)">
<stop offset="0.16" stop-color="#FFEA00"/>
<stop offset="0.23" stop-color="#FFDE00"/>
<stop offset="0.37" stop-color="#FFBF00"/>
<stop offset="0.54" stop-color="#FF8E00"/>
<stop offset="0.76" stop-color="#FF272D"/>
<stop offset="0.8" stop-color="#F92433"/>
<stop offset="0.84" stop-color="#E91C45"/>
<stop offset="0.89" stop-color="#CF0E62"/>
<stop offset="0.94" stop-color="#B5007F"/>
</radialGradient>
<radialGradient id="paint7_radial_302_19" cx="0" cy="0" r="1" gradientUnits="userSpaceOnUse" gradientTransform="translate(25.4324 5.95387) scale(27.187)">
<stop offset="0.28" stop-color="#FFEA00"/>
<stop offset="0.4" stop-color="#FFDD00"/>
<stop offset="0.63" stop-color="#FFBA00"/>
<stop offset="0.86" stop-color="#FF9100"/>
<stop offset="0.93" stop-color="#FF6711"/>
<stop offset="0.99" stop-color="#FF4A1D"/>
</radialGradient>
<linearGradient id="paint8_linear_302_19" x1="9.51971" y1="16.1351" x2="21.2297" y2="14.347" gradientUnits="userSpaceOnUse">
<stop stop-color="#C42482" stop-opacity="0.5"/>
<stop offset="0.47" stop-color="#FF272D" stop-opacity="0.5"/>
<stop offset="0.49" stop-color="#FF2C2C" stop-opacity="0.51"/>
<stop offset="0.68" stop-color="#FF7A1A" stop-opacity="0.72"/>
<stop offset="0.83" stop-color="#FFB20D" stop-opacity="0.87"/>
<stop offset="0.94" stop-color="#FFD605" stop-opacity="0.96"/>
<stop offset="1" stop-color="#FFE302"/>
</linearGradient>
<linearGradient id="paint9_linear_302_19" x1="9.4315" y1="13.0644" x2="8.21043" y2="8.67563" gradientUnits="userSpaceOnUse">
<stop stop-color="#891551" stop-opacity="0.6"/>
<stop offset="1" stop-color="#C42482" stop-opacity="0"/>
</linearGradient>
<linearGradient id="paint10_linear_302_19" x1="11.6606" y1="19.2316" x2="14.176" y2="22.7455" gradientUnits="userSpaceOnUse">
<stop offset="0.01" stop-color="#891551" stop-opacity="0.5"/>
<stop offset="0.48" stop-color="#FF272D" stop-opacity="0.5"/>
<stop offset="1" stop-color="#FF272D" stop-opacity="0"/>
</linearGradient>
<linearGradient id="paint11_linear_302_19" x1="16.5624" y1="25.3491" x2="16.7926" y2="23.0916" gradientUnits="userSpaceOnUse">
<stop stop-color="#C42482"/>
<stop offset="0.08" stop-color="#C42482" stop-opacity="0.81"/>
<stop offset="0.21" stop-color="#C42482" stop-opacity="0.57"/>
<stop offset="0.33" stop-color="#C42482" stop-opacity="0.36"/>
<stop offset="0.45" stop-color="#C42482" stop-opacity="0.2"/>
<stop offset="0.56" stop-color="#C42482" stop-opacity="0.09"/>
<stop offset="0.67" stop-color="#C42482" stop-opacity="0.02"/>
<stop offset="0.77" stop-color="#C42482" stop-opacity="0"/>
</linearGradient>
<linearGradient id="paint12_linear_302_19" x1="23.909" y1="6.10323" x2="33.2307" y2="26.9476" gradientUnits="userSpaceOnUse">
<stop stop-color="#FFF14F"/>
<stop offset="0.27" stop-color="#FFEE4C"/>
<stop offset="0.45" stop-color="#FFE643"/>
<stop offset="0.61" stop-color="#FFD834"/>
<stop offset="0.76" stop-color="#FFC41E"/>
<stop offset="0.89" stop-color="#FFAB02"/>
<stop offset="0.9" stop-color="#FFA900"/>
<stop offset="0.95" stop-color="#FFA000"/>
<stop offset="1" stop-color="#FF9100"/>
</linearGradient>
<linearGradient id="paint13_linear_302_19" x1="25.7598" y1="18.092" x2="21.3445" y2="29.9477" gradientUnits="userSpaceOnUse">
<stop stop-color="#FF8E00"/>
<stop offset="0.04" stop-color="#FF8E00" stop-opacity="0.86"/>
<stop offset="0.08" stop-color="#FF8E00" stop-opacity="0.73"/>
<stop offset="0.13" stop-color="#FF8E00" stop-opacity="0.63"/>
<stop offset="0.18" stop-color="#FF8E00" stop-opacity="0.56"/>
<stop offset="0.23" stop-color="#FF8E00" stop-opacity="0.51"/>
<stop offset="0.28" stop-color="#FF8E00" stop-opacity="0.5"/>
<stop offset="0.39" stop-color="#FF8E00" stop-opacity="0.48"/>
<stop offset="0.52" stop-color="#FF8E00" stop-opacity="0.42"/>
<stop offset="0.68" stop-color="#FF8E00" stop-opacity="0.31"/>
<stop offset="0.84" stop-color="#FF8E00" stop-opacity="0.17"/>
<stop offset="1" stop-color="#FF8E00" stop-opacity="0"/>
</linearGradient>
</defs>
</svg>
