<svg width="40" height="40" viewBox="0 0 40 40" fill="none" xmlns="http://www.w3.org/2000/svg">
<path d="M20.4691 36.8593L8.63678 33.5746L6 4H34.9737L32.3341 33.5699L20.4691 36.8593Z" fill="#264DE4"/>
<path d="M30.0743 31.687L32.33 6.41817H20.4868V34.3451L30.0743 31.687Z" fill="#2965F1"/>
<path d="M12.0448 17.3869L12.3699 21.0141H20.4869V17.3869H12.0448Z" fill="#EBEBEB"/>
<path d="M11.3915 10.0454L11.7212 13.6726H20.4868V10.0454H11.3915Z" fill="#EBEBEB"/>
<path d="M20.4869 26.8072L20.471 26.8114L16.4314 25.7206L16.1731 22.8278H12.532L13.0402 28.523L20.4702 30.5856L20.4869 30.581V26.8072Z" fill="#EBEBEB"/>
<path d="M28.9056 17.3869L29.5604 10.0454H20.4742V13.6726H25.5853L25.2553 17.3869H20.4742V21.0141H24.9407L24.5197 25.7183L20.4742 26.8102V30.5839L27.9102 28.523L27.9647 27.9102L28.8171 18.3609L28.9056 17.3869Z" fill="white"/>
</svg>
