<svg width="40" height="40" viewBox="0 0 40 40" fill="none" xmlns="http://www.w3.org/2000/svg">
<path d="M34.0748 4L31.426 33.6731L19.5196 36.974L7.64598 33.6778L5 4H34.0748Z" fill="#E44D26"/>
<path d="M19.5374 34.451L29.1583 31.7837L31.4219 6.42664H19.5374V34.451Z" fill="#F16529"/>
<path d="M14.3883 13.7064H19.5374V10.0665H10.4104L10.4975 11.043L11.3921 21.0735H19.5374V17.4337H14.721L14.3883 13.7064Z" fill="#EBEBEB"/>
<path d="M15.2085 22.8935H11.5547L12.0646 28.6086L19.5206 30.6784L19.5374 30.6738V26.8868L19.5214 26.891L15.4677 25.7964L15.2085 22.8935Z" fill="#EBEBEB"/>
<path d="M19.5249 21.0735H24.007L23.5845 25.7941L19.5249 26.8898V30.6766L26.9868 28.6086L27.0416 27.9936L27.8969 18.4111L27.9857 17.4337H19.5249V21.0735Z" fill="white"/>
<path d="M19.5249 13.6975V13.7064H28.3169L28.3899 12.8882L28.5558 11.043L28.6428 10.0665H19.5249V13.6975Z" fill="white"/>
</svg>
