<svg width="40" height="40" viewBox="0 0 40 40" fill="none" xmlns="http://www.w3.org/2000/svg">
<path d="M33.5069 8H5.56787C5.25424 8 5 8.25424 5 8.56787V31.2079C5 31.5215 5.25424 31.7757 5.56787 31.7757H33.5069C33.8206 31.7757 34.0748 31.5215 34.0748 31.2079V8.56787C34.0748 8.25424 33.8206 8 33.5069 8Z" fill="white"/>
<path d="M8.20744 10.4729C8.11024 10.3757 7.99295 10.3271 7.85557 10.3271C7.71819 10.3271 7.60043 10.3762 7.5023 10.4743C7.40557 10.571 7.3565 10.6888 7.3565 10.8262C7.3565 10.9636 7.40557 11.0813 7.5023 11.178L9.02894 12.7047L7.5037 14.2299C7.40557 14.328 7.3565 14.4458 7.3551 14.5832C7.3565 14.7206 7.40557 14.8383 7.5023 14.9351C7.60043 15.0318 7.71819 15.0808 7.85417 15.0822C7.99295 15.0822 8.11071 15.0332 8.20884 14.9351L9.90511 13.2374C10.2612 12.8827 10.2612 12.5266 9.90511 12.1706L8.20744 10.4729ZM14.8565 14.2327C14.7584 14.1346 14.6392 14.0855 14.5004 14.0855V14.0848H11.2257V14.0855C11.0869 14.0855 10.9691 14.1346 10.871 14.2327C10.7729 14.3308 10.7238 14.4486 10.7238 14.5874C10.7238 14.7262 10.7729 14.8453 10.871 14.9435C10.9691 15.0416 11.0869 15.0907 11.2257 15.0907V15.09H14.5004V15.0907C14.6392 15.0907 14.7584 15.0416 14.8565 14.9435C14.9546 14.8453 15.0037 14.7262 15.0037 14.5874C15.0037 14.4486 14.9546 14.3308 14.8565 14.2327Z" fill="black"/>
</svg>
