<svg width="40" height="40" viewBox="0 0 40 40" fill="none" xmlns="http://www.w3.org/2000/svg">
<path d="M19.5374 36.7618C19.0859 36.7618 18.6646 36.6414 18.2733 36.4307L14.2702 34.053C13.6683 33.7219 13.9692 33.6015 14.1498 33.5413C14.9625 33.2704 15.113 33.2102 15.9557 32.7287C16.046 32.6685 16.1664 32.6986 16.2567 32.7588L19.3267 34.5947C19.4471 34.6549 19.5976 34.6549 19.6879 34.5947L31.697 27.6421C31.8174 27.5819 31.8776 27.4615 31.8776 27.311V13.4358C31.8776 13.2853 31.8174 13.1649 31.697 13.1047L19.6879 6.18211C19.5675 6.12192 19.417 6.12192 19.3267 6.18211L7.31756 13.1047C7.19716 13.1649 7.13697 13.3154 7.13697 13.4358V27.311C7.13697 27.4314 7.19716 27.5819 7.31756 27.6421L10.5983 29.5383C12.374 30.4412 13.4877 29.3878 13.4877 28.3343V14.6397C13.4877 14.4591 13.6382 14.2785 13.8488 14.2785H15.3839C15.5644 14.2785 15.745 14.429 15.745 14.6397V28.3343C15.745 30.7121 14.4508 32.0966 12.1935 32.0966C11.5012 32.0966 10.9594 32.0966 9.42442 31.3442L6.26412 29.5383C5.48157 29.0868 5 28.244 5 27.3411V13.4659C5 12.5629 5.48157 11.7202 6.26412 11.2687L18.2733 4.31603C19.0257 3.89466 20.0491 3.89466 20.8015 4.31603L32.8107 11.2687C33.5932 11.7202 34.0748 12.5629 34.0748 13.4659V27.3411C34.0748 28.244 33.5932 29.0868 32.8107 29.5383L20.8015 36.4909C20.4102 36.6715 19.9588 36.7618 19.5374 36.7618ZM23.2395 27.2207C17.9723 27.2207 16.8888 24.8129 16.8888 22.7662C16.8888 22.5856 17.0393 22.405 17.2499 22.405H18.815C18.9956 22.405 19.1461 22.5254 19.1461 22.706C19.3869 24.3012 20.0792 25.0837 23.2696 25.0837C25.7978 25.0837 26.8813 24.5119 26.8813 23.1575C26.8813 22.3749 26.5804 21.803 22.6375 21.4118C19.3568 21.0807 17.3101 20.3583 17.3101 17.7398C17.3101 15.3018 19.3568 13.8571 22.788 13.8571C26.6406 13.8571 28.5367 15.1815 28.7775 18.0709C28.7775 18.1612 28.7474 18.2515 28.6872 18.3418C28.627 18.402 28.5367 18.4622 28.4464 18.4622H26.8813C26.7308 18.4622 26.5804 18.3418 26.5503 18.1913C26.1891 16.5359 25.256 15.9941 22.788 15.9941C20.019 15.9941 19.6879 16.9572 19.6879 17.6796C19.6879 18.5524 20.0792 18.8233 23.8113 19.3049C27.5134 19.7865 29.2591 20.4787 29.2591 23.0672C29.229 25.7158 27.0619 27.2207 23.2395 27.2207Z" fill="#539E43"/>
</svg>
