<svg width="40" height="40" viewBox="0 0 40 40" fill="none" xmlns="http://www.w3.org/2000/svg">
<path d="M19.5374 5C11.511 5 5 11.511 5 19.5374C5 27.5638 11.511 34.0748 19.5374 34.0748C27.5638 34.0748 34.0748 27.5638 34.0748 19.5374C34.0748 11.511 27.5638 5 19.5374 5Z" fill="#368FB9"/>
<path d="M28.0914 24.7686C27.1933 24.9819 26.7387 25.1784 25.6273 25.9024C23.893 27.025 21.9958 27.547 21.9958 27.547C21.9958 27.547 21.8386 27.7827 21.384 27.8894C20.5982 28.0802 17.6402 28.243 17.3708 28.2486C16.6467 28.2542 16.2033 28.0634 16.0798 27.7659C15.7037 26.8678 16.6186 26.4749 16.6186 26.4749C16.6186 26.4749 16.4166 26.3514 16.2987 26.2392C16.1921 26.1325 16.0798 25.9193 16.0461 25.9978C15.9058 26.3402 15.8328 27.1765 15.4568 27.5526C14.9404 28.0746 13.9637 27.9006 13.3856 27.5975C12.7514 27.2607 13.4305 26.4693 13.4305 26.4693C13.4305 26.4693 13.0881 26.6714 12.8131 26.256C12.5661 25.8744 12.336 25.2233 12.3977 24.4206C12.4651 23.5057 13.4866 22.6189 13.4866 22.6189C13.4866 22.6189 13.307 21.2662 13.8964 19.8798C14.4296 18.6169 15.8665 17.6009 15.8665 17.6009C15.8665 17.6009 14.6597 16.2651 15.1088 15.0639C15.4006 14.2781 15.5185 14.2837 15.6139 14.25C15.9507 14.1209 16.2763 13.9806 16.5176 13.7168C17.7244 12.4146 19.2623 12.6616 19.2623 12.6616C19.2623 12.6616 19.992 10.4445 20.6655 10.8767C20.8732 11.0114 21.6197 12.6728 21.6197 12.6728C21.6197 12.6728 22.4168 12.207 22.5066 12.381C22.9893 13.3183 23.0454 15.1088 22.8321 16.1977C22.4729 17.9938 21.5748 18.9593 21.2156 19.5655C21.1314 19.7058 22.181 20.1492 22.8433 21.9846C23.4551 23.6629 22.9107 25.0717 23.0061 25.2289C23.023 25.2569 23.0286 25.2682 23.0286 25.2682C23.0286 25.2682 23.7302 25.3243 25.139 24.4543C25.8911 23.9884 26.7836 23.4664 27.7995 23.4552C28.7818 23.4384 28.8323 24.589 28.0914 24.7686ZM29.4273 23.9435C29.3262 23.1465 28.6527 22.5964 27.7883 22.6076C26.4973 22.6245 25.414 23.2924 24.6956 23.7358C24.415 23.9098 24.1736 24.0389 23.9659 24.1344C24.0108 23.4833 23.9715 22.6301 23.6348 21.6927C23.225 20.5702 22.675 19.8798 22.2821 19.4813C22.7367 18.8189 23.3597 17.8535 23.6516 16.3605C23.9042 15.0864 23.8256 13.105 23.2475 11.9937C23.1296 11.7691 22.9331 11.6064 22.6862 11.539C22.5851 11.511 22.3943 11.4548 22.0182 11.5615C21.4513 10.3884 21.2549 10.2649 21.1033 10.1639C20.789 9.96179 20.4186 9.91689 20.0706 10.046C19.6047 10.2144 19.2062 10.6634 18.8301 11.4604C18.774 11.5783 18.7235 11.6906 18.6786 11.8028C17.9657 11.8533 16.8432 12.1115 15.8946 13.1387C15.7767 13.2678 15.5466 13.3632 15.3052 13.453H15.3108C14.8169 13.627 14.5924 14.0311 14.3174 14.7608C13.9357 15.7824 14.3286 16.7871 14.7159 17.4382C14.1883 17.9097 13.4866 18.6618 13.1162 19.543C12.6559 20.6319 12.6054 21.6984 12.6223 22.2765C12.2294 22.6918 11.6232 23.472 11.5558 24.3476C11.466 25.5713 11.9094 26.402 12.1059 26.7051C12.162 26.7949 12.2237 26.8678 12.2911 26.9408C12.2686 27.0923 12.263 27.2551 12.2967 27.4235C12.3697 27.8164 12.6166 28.1363 12.9927 28.3384C13.7336 28.7313 14.7664 28.8997 15.5634 28.5012C15.8497 28.8043 16.3717 29.0962 17.3203 29.0962H17.3764C17.6177 29.0962 20.6824 28.9334 21.5748 28.7145C21.9733 28.6191 22.2484 28.4507 22.428 28.2991C23.0005 28.1195 24.5833 27.5807 26.0764 26.6153C27.1316 25.9305 27.4964 25.7845 28.2822 25.5937C29.0456 25.4085 29.5227 24.7125 29.4273 23.9435Z" fill="white"/>
</svg>
